<mxfile host="65bd71144e" modified="2021-01-10T15:14:39.379Z" agent="5.0 (Macintosh; Intel Mac OS X 11_0_0) AppleWebKit/537.36 (KHTML, like Gecko) Code/1.52.1 Chrome/83.0.4103.122 Electron/9.3.5 Safari/537.36" etag="HBkwiOr5g00DuAc94oHp" version="13.10.0" type="embed">
    <diagram id="sOhACeDZCRdY6iyjLsLT" name="Page-1">
        <mxGraphModel dx="1986" dy="1572" grid="1" gridSize="10" guides="1" tooltips="1" connect="1" arrows="1" fold="1" page="1" pageScale="1" pageWidth="850" pageHeight="1100" math="0" shadow="0">
            <root>
                <mxCell id="0"/>
                <mxCell id="1" parent="0"/>
                <mxCell id="37" value="" style="rounded=1;whiteSpace=wrap;html=1;dashed=1;fillColor=none;" parent="1" vertex="1">
                    <mxGeometry y="-220" width="1160" height="420" as="geometry"/>
                </mxCell>
                <mxCell id="38" value="" style="rounded=1;whiteSpace=wrap;html=1;dashed=1;fillColor=none;" parent="1" vertex="1">
                    <mxGeometry y="-415" width="1160" height="165" as="geometry"/>
                </mxCell>
                <mxCell id="2" value="S3 Bucket" style="outlineConnect=0;fontColor=#232F3E;gradientColor=#60A337;gradientDirection=north;fillColor=#277116;strokeColor=#ffffff;dashed=0;verticalLabelPosition=bottom;verticalAlign=top;align=center;html=1;fontSize=12;fontStyle=0;aspect=fixed;shape=mxgraph.aws4.resourceIcon;resIcon=mxgraph.aws4.s3;" parent="1" vertex="1">
                    <mxGeometry x="505.5" y="-370" width="78" height="78" as="geometry"/>
                </mxCell>
                <mxCell id="3" value="Lambda" style="outlineConnect=0;dashed=0;verticalLabelPosition=bottom;verticalAlign=top;align=center;html=1;shape=mxgraph.aws3.lambda_function;fillColor=#F58534;gradientColor=none;" parent="1" vertex="1">
                    <mxGeometry x="510" y="-157" width="69" height="72" as="geometry"/>
                </mxCell>
                <mxCell id="4" value="AppSync" style="outlineConnect=0;fontColor=#232F3E;gradientColor=#F54749;gradientDirection=north;fillColor=#C7131F;strokeColor=#ffffff;dashed=0;verticalLabelPosition=bottom;verticalAlign=top;align=center;html=1;fontSize=12;fontStyle=0;aspect=fixed;shape=mxgraph.aws4.resourceIcon;resIcon=mxgraph.aws4.appsync;" parent="1" vertex="1">
                    <mxGeometry x="250" y="-160" width="78" height="78" as="geometry"/>
                </mxCell>
                <mxCell id="5" value="Cognito" style="outlineConnect=0;fontColor=#232F3E;gradientColor=#F54749;gradientDirection=north;fillColor=#C7131F;strokeColor=#ffffff;dashed=0;verticalLabelPosition=bottom;verticalAlign=top;align=center;html=1;fontSize=12;fontStyle=0;aspect=fixed;shape=mxgraph.aws4.resourceIcon;resIcon=mxgraph.aws4.cognito;" parent="1" vertex="1">
                    <mxGeometry x="250" width="78" height="78" as="geometry"/>
                </mxCell>
                <mxCell id="6" value="DynamoDB" style="outlineConnect=0;fontColor=#232F3E;gradientColor=#4D72F3;gradientDirection=north;fillColor=#3334B9;strokeColor=#ffffff;dashed=0;verticalLabelPosition=bottom;verticalAlign=top;align=center;html=1;fontSize=12;fontStyle=0;aspect=fixed;shape=mxgraph.aws4.resourceIcon;resIcon=mxgraph.aws4.dynamodb;" parent="1" vertex="1">
                    <mxGeometry x="505.5" y="-48" width="78" height="78" as="geometry"/>
                </mxCell>
                <mxCell id="7" value="CloudFront" style="outlineConnect=0;fontColor=#232F3E;gradientColor=#945DF2;gradientDirection=north;fillColor=#5A30B5;strokeColor=#ffffff;dashed=0;verticalLabelPosition=bottom;verticalAlign=top;align=center;html=1;fontSize=12;fontStyle=0;aspect=fixed;shape=mxgraph.aws4.resourceIcon;resIcon=mxgraph.aws4.cloudfront;" parent="1" vertex="1">
                    <mxGeometry x="25.5" y="-370" width="78" height="78" as="geometry"/>
                </mxCell>
                <mxCell id="14" value="CloudFront" style="outlineConnect=0;fontColor=#232F3E;gradientColor=#945DF2;gradientDirection=north;fillColor=#5A30B5;strokeColor=#ffffff;dashed=0;verticalLabelPosition=bottom;verticalAlign=top;align=center;html=1;fontSize=12;fontStyle=0;aspect=fixed;shape=mxgraph.aws4.resourceIcon;resIcon=mxgraph.aws4.cloudfront;" parent="1" vertex="1">
                    <mxGeometry x="25.5" y="-160" width="78" height="78" as="geometry"/>
                </mxCell>
                <mxCell id="16" value="" style="endArrow=none;html=1;startArrow=classic;startFill=1;endFill=0;" parent="1" source="7" target="2" edge="1">
                    <mxGeometry width="50" height="50" relative="1" as="geometry">
                        <mxPoint x="255.5" y="-332" as="sourcePoint"/>
                        <mxPoint x="305.5" y="-382" as="targetPoint"/>
                    </mxGeometry>
                </mxCell>
                <mxCell id="19" value="S3 Bucket" style="outlineConnect=0;fontColor=#232F3E;gradientColor=#60A337;gradientDirection=north;fillColor=#277116;strokeColor=#ffffff;dashed=0;verticalLabelPosition=bottom;verticalAlign=top;align=center;html=1;fontSize=12;fontStyle=0;aspect=fixed;shape=mxgraph.aws4.resourceIcon;resIcon=mxgraph.aws4.s3;" parent="1" vertex="1">
                    <mxGeometry x="505.5" y="70" width="78" height="78" as="geometry"/>
                </mxCell>
                <mxCell id="20" value="Lambda" style="outlineConnect=0;dashed=0;verticalLabelPosition=bottom;verticalAlign=top;align=center;html=1;shape=mxgraph.aws3.lambda_function;fillColor=#F58534;gradientColor=none;" parent="1" vertex="1">
                    <mxGeometry x="804" y="-164.5" width="69" height="72" as="geometry"/>
                </mxCell>
                <mxCell id="22" value="" style="endArrow=classic;html=1;" parent="1" source="20" target="2" edge="1">
                    <mxGeometry width="50" height="50" relative="1" as="geometry">
                        <mxPoint x="710" y="-370" as="sourcePoint"/>
                        <mxPoint x="760" y="-420" as="targetPoint"/>
                        <Array as="points">
                            <mxPoint x="839" y="-331"/>
                        </Array>
                    </mxGeometry>
                </mxCell>
                <mxCell id="23" value="" style="endArrow=classic;html=1;" parent="1" source="14" target="19" edge="1">
                    <mxGeometry width="50" height="50" relative="1" as="geometry">
                        <mxPoint x="290" y="270" as="sourcePoint"/>
                        <mxPoint x="340" y="220" as="targetPoint"/>
                        <Array as="points">
                            <mxPoint x="65" y="109"/>
                        </Array>
                    </mxGeometry>
                </mxCell>
                <mxCell id="28" value="" style="endArrow=classic;html=1;" parent="1" source="4" target="3" edge="1">
                    <mxGeometry width="50" height="50" relative="1" as="geometry">
                        <mxPoint x="340" y="10" as="sourcePoint"/>
                        <mxPoint x="390" y="-40" as="targetPoint"/>
                    </mxGeometry>
                </mxCell>
                <mxCell id="30" value="" style="endArrow=classic;html=1;startArrow=classic;startFill=1;" parent="1" source="4" target="6" edge="1">
                    <mxGeometry width="50" height="50" relative="1" as="geometry">
                        <mxPoint x="330" y="80" as="sourcePoint"/>
                        <mxPoint x="380" y="30" as="targetPoint"/>
                    </mxGeometry>
                </mxCell>
                <mxCell id="31" value="" style="endArrow=classic;html=1;" parent="1" source="3" target="2" edge="1">
                    <mxGeometry width="50" height="50" relative="1" as="geometry">
                        <mxPoint x="460" y="-210" as="sourcePoint"/>
                        <mxPoint x="510" y="-260" as="targetPoint"/>
                    </mxGeometry>
                </mxCell>
                <mxCell id="33" value="" style="endArrow=classic;html=1;" parent="1" source="14" target="4" edge="1">
                    <mxGeometry width="50" height="50" relative="1" as="geometry">
                        <mxPoint x="130" y="20" as="sourcePoint"/>
                        <mxPoint x="180" y="-30" as="targetPoint"/>
                    </mxGeometry>
                </mxCell>
                <mxCell id="34" value="&lt;font style=&quot;font-size: 18px&quot;&gt;static website&lt;/font&gt;" style="text;html=1;strokeColor=none;fillColor=none;align=center;verticalAlign=middle;whiteSpace=wrap;rounded=0;" parent="1" vertex="1">
                    <mxGeometry x="-340" y="-261" width="140" height="20" as="geometry"/>
                </mxCell>
                <mxCell id="35" value="&lt;font style=&quot;font-size: 18px&quot;&gt;admin web application&lt;/font&gt;" style="text;html=1;strokeColor=none;fillColor=none;align=center;verticalAlign=middle;whiteSpace=wrap;rounded=0;" parent="1" vertex="1">
                    <mxGeometry x="-375" y="-49" width="210" height="20" as="geometry"/>
                </mxCell>
                <mxCell id="36" value="" style="endArrow=classic;html=1;" parent="1" source="19" target="20" edge="1">
                    <mxGeometry width="50" height="50" relative="1" as="geometry">
                        <mxPoint x="680" y="100" as="sourcePoint"/>
                        <mxPoint x="730" y="50" as="targetPoint"/>
                        <Array as="points">
                            <mxPoint x="839" y="109"/>
                        </Array>
                    </mxGeometry>
                </mxCell>
                <mxCell id="39" value="" style="shape=image;verticalLabelPosition=bottom;verticalAlign=top;imageAspect=0;aspect=fixed;image=data:image/png,iVBORw0KGgoAAAANSUhEUgAAAgAAAAIACAYAAAD0eNT6AAAACXBIWXMAAAsTAAALEwEAmpwYAAAgAElEQVR4nOzdd5hcZfXA8e+Z2fSEIkUILTHZndldCC30ojTpVYoComAHBFSkigg2miBNEBUEIijyg9AEpAQEBUOkBHZ3ZjchkRa6QBKS7O7M+f1xB0jZbLa8733vnT2f59knEJJzDsnO3DPvfe95wRhjjDHGGGOMMcYYY4wxxhhjjDHGGGOMMcYYY4wxxhhjjDHGGGOMMcYYY4wxxhhjjDHGGGOMMcYYY4wxxhhjjDHGGGOMMcYYY4wxxhhjjDHGGGOMMcYYY4wxxhhjjDHGGGOMMcYYY4wxxhhjjDHGGGOMMcYYY4wxxhhjjDHGGGOMMcYYY4wxxhhjjDHGGGOMMcYYY4wxxhhjjDHGGGOMMcYYY4wxxhhjjDHGGGOMMcYYY4wxxhhjjDHGGGOMMcYYY4wxxhhjjDHGGGOMMcYYY0yySOgCjDFmwGnSwWQYhbASGQRhLvABtbIodGlm4LAGwLjXoqshbIwwDmUVYGWUVRBWBlYGhqDMR5gHla/on+cCs+ikjeHMZKwsDPh/YUzfzNKhLGA8GfJADsgDdcBqwEqVryHL+d3twAeVr1dRpgPPA9MRXiAvc73XbwYMawBM/8zSVVjEbiibIWwMbAyMdhBZgZeBNqANpRnln7zBdHaSTgfxjek/1QytbESZHRF2BDYHxuDvvfVF4O8ot1PmERql3VMeMwBYA2B6b4auSYn9UQ4CdgEGxZh9PvAkyj9RHifDk/apyMRGNUsrm1Uu+J8FdgBWCVTN+8DdKLczkr+xniwIVIdJKWsATM9Eb3wHU+ZYhO2BTOiSKsrANJQ7qGEy42lBREMXZarINB3EcD5HloNRDgDWDF3SMoQ3KHMRZa6mUeaFLsekgzUApntTtIbRHI5yBtH9zKRrAyajTCbPk4iUQxdkUqhJB1PDrigHA/sDnwpdUg+9C1zCEK5grLwXuhiTbNYAmK5FF/6jUU4HxoYup0+EN1AmI1xLHU/ZyoDplqrQxpaU+SbwBaINq2n1AcLp1HG1NcFmeawBMMsqah7lemDL0KU49ALwB4RJ5OTt0MWYBCnoKJTDEb4NbBK6HMceosQxNMpLoQsxyWMNgPmEaoYiJwC/BIaGLseTduAOlD+Q50FESqELMoG06aaU+BZwBDAydDkezQW+R45rbRXMLM4aABNp0TEIfwQ+G7qUGL0EXMEgrmGcvB+6GBODaJl/L8qcBmwfupyYTWYeRzBRPgxdiEkGawAMtOjmCPcCa4QuJZAPgKuBS8nLa6GLMR5M0RrW4lCE04CNQpcT0BOU2IdGeTd0ISY8awAGuoLuDNxBdS+B9lQHMIksF1ErzaGLMQ7M0qEs4mjgh6R1M6t7LdSwO+Pl5dCFmLCsARjICnow8CdgcOhSEugulPOol3+FLsT0wSwdSjvHAqegfDp0OQn0Cll2t0Z3YLMGYKAq6tdRrsG+B1bkbwhnkJPnQhdiekA1S4EjEc4F1g9dTsK9TYatqJMXQxdiwrA3/4GoqHui3E1ypvmlwU1k+TG1MjN0IaYLqkKBvRF+CWwYupwUaWEI29rQoIHJGoCBplk3JMO/gFGhS0mhTuB3lPkpDTIndDGmokW3RTifgber3w3hAV5jLztka+CxBmAgmaFr0sm/iU4rM323AOVShnK+fXIKqEnXJ8vFRFP7TP9cRY7jbE7AwGINwEAR7YZ+CNg2dClV5C3gNHL80catxqhNh9DJDxB+BAwLXU7VEI4jJ78JXYaJjzUAA0WLXozwvdBlVCXhSUocR4M8HbqUqteiuyNcDtSGLqUKLaTMBBqkLXQhJh7WAAwEzbp15b6//X37o8DVlPiRDVnxoEnXp4ZLUA4KXUqVe4wcn7MVrYHBdoFXuzYdgvAH7OLvmwDfIUuRgn4NVXttuTBNB1HU08hSsIt/LHagwHGhizDxsItCtSvoucBZocsgOoTnLaKd9KXK1yBgTWB4wLr8UP5Nlm9TJ8+GLiW1iroxZa5D2DR0KQ68gzIDYQ5UvpRoA6kgRO/FKxFt0B0DjAM2CFIpfEiWCfbIa/WzBqCaFXVjlGlATcyZ3wQeAKYgtAIvUsec5S4rNulIBvNpSqwF5IAJla+NgU/FVLMPncB5ZPkZtbIodDGp0aSDyXAGwpnE/73rwpvAowhPA8+hPEeOOb3eYT9D16ODXcjweZT9ibdRnkKOXeypgOpmDUC1igajPIKwY0wZFwF/pMw11POsk3uIqsIM1qGTHRF2AXYh3KeivhOaUL5KXqaFLiXxooOpriVqANNiPsIUlIdQHiLPC84vnC26GsKxwHeJ69AuYS9ycm8suUwQ1gBUq6LugvJgDJlKwMV08Cs2kje8ZoqOch2Lsgtl9kf4PNFthDQoAxcyhJ8wVhaGLiZx2nQIZc5GOQXIhi6nB+YBdyL8leHcz3qyIJasTTqSDBcjfCOGbP8hxxa2ClC9rAGoRqpCkcfx/8z/TMocSYM86TlP16brqgxif4RDgd1Ix3JxAeUY6uWJ0IUkRrNuhnAjQkPoUlagE7gD4U8M577YLvpdKeoBKH/A9y0y4UByMtlrDhOMNQDVKHpW+j7PWe6ixOE0yjzPeXqmST9FhoMRvgVsFrqcFVCUS5jPWUyUD0MXE4xqhgLfq8zvT/JKzn9RrqHMtTTK66GL+ViLboTwEH5vCTxPjk3sscDqZA1AtYnu/T+BsJXHLHdQ4lAapd1jjr4r6hYo3wa+RJInxSnNwBepl+dDlxK7Jl2LLNcDnw9dynKUgbsRrqaOvyNSCl1Ql5q0kSwPEz1N44fwRXLyF2/xTTDWAFSbou6Fco/HDHdR4uDEXvwXN0tXYSFfRjiO6OmCJFqE8H3quGrA3GuNvkf/SFyb2XpnEXAtcCF5mRW6mB4p6ATgSXw1u0ITdWw0YL4/BxBrAKpNQe8DdvcUvY0sE6mVDzzF9yNaaj4A4XRgYuhyuqTcTpmvV/UUweg8ivOAE0OX0oW5wFWUuCRRy/w9VdSjUK73Fl/YgZw87i2+CcIagGoSnY42Gz9/rwsRtiYnz3mIHQ9VoYVdyXA6sFPocrrwCsLh5OSx0IU416r1lLmZaLZDkrwD/Jp2rmSC/C90Mf3Sotd4fDrgRvJylKfYJhAbV1pNavgq/pq676X64g8gojTIA+RlZ8psA9wVuqSlrIvyCEU9mymahicaeqagh1LmKZJ18Z+Pci4wlrz8LPUXf4CRnAi86Cn6oTRpmodymS7YCkC1UM1Q5EX8DMp5ihxbV+VO4BbdFuECYLvQpSzlMWo4gvHycuhC+myaDmIE5yfsFMoS8DtKnJPKpf4VKeh+wB2eop9EXi71FNsEYA1AtWjW3cjwdy+xy2wT7Fn/OERPTuwDnJewZ9HfBg4lL1NCF9Jrzbo2Gf4C7BC6lI8Jt6GcQV6KoUvxJpoBci9+9gG1kKPRNgNWD7sFUC0yfM1T5Bur+uIP0a2BermLPBOAY4BXQpdUsTrwIC36A1TT06wXdXsyPE1yLv7/QdmOnHyhqi/+QOXifCLRSodr9RS9DxczMbIGoBo8pyOAAzxELgNne4ibTCIl8nIdI6gDfgwkYWRvBuEiivyZJh0ZuphuqQoFPQllCrBW6HKA94BjybEV9fKv0MXEJmpy/uwlth3JXFWsAagGg9kZGOIh8q2peRbapfVkAXn5KdAA3Bm6nIpDyfIETTo+dCFdmqbDKXATcAnJGMl8HVnqyMtViR3i49cFXqIK+6dqNcp0yxqAaiDs7SnyhZ7ipkNeZpGX/VH2BZLQCG1Ilmm0qq+/774p6GhG8g+EL4YuBZgObE9ejqFW3gpdTDB5mQ74OMlvHG3kPcQ1AVgDkHZRN+7jgvCoHV9bUS93M4JGlHOIJsWFtDJl7qaoZ6Ma/vXbrJsBU4HNA1eyEOWHzGFz8vLPwLUkg3K+l7hl9vMS18TOlnLSLjoQZLqHyF8mL5M8xE23Nh1Hid8DnwtdCqEPZCrqgSiTgOFB8n/iCeDoqt/g11vREwFFoNZx5H+Rl6Q9Nmv6IPwnCNM/GS+f/hfg71nidKuVmeTYBeW7QOiT/PYly2O06bqxZo02+52KchthL/4LUU4mxw528e+CiCL8yUPkbZih/g4fMrGxBiDt1EMDoNxBXuY6j1stRMrUyxVkmYDyj8DVbEKJf9Omm8aSrU2H0Mp1wHmx5Fu+J4BNqJdfDdBNfj3T6aUBEErs4SGuiZk1AGn2sg4DtvYQ2cebRvWplZnk2QnlBMKuBoymxGO06L5es7ToapR4AOUrXvN0r90+9fdCo8xA8DHHw24BVAFrANJsHpvi/pGr+dTwgOOY1StaDbg8AasBIxAmU9ATvERv0vURHifscJ8Cwpb2qb+XlJs9xLSBQFXAGoA0E7Z0HlN5hFoJvdM9fT5aDYiOHA51ccoAl1LUy50eJtSq9WT5JwR8/Eu4hnlsnvoDqUJQ7vMQtZGZurKHuCZG1gCkmY8GQDydJzAQiJTJyXmU2Z6QcwOU41mbOyjoqH7HKuqWlHkMiHej4SfeAw4hJ99iooTedJlOedqA2Y6jCu1s5TimiZk1AGmmHhqAjC3/91uDPMkgNkU9jWPtmb2Ax2jSvo/kbdbdUB4GVnNWVe88TomNycutgfJXh+hpAPeNfYZtnMc0sbIGIK2is7nHOY76KrUUHMccmMbJ++Q5HOVowm0Q3JgaHqNZe39EdEEPJcM9wAj3ZfXIT5nDTjTKS4HyV5cy9zuPafsAUs8agLTKsIWHqI/bUZ8ORacM/hHYDHg2SA3KeDI8TlF7fv++qMcSHSYzyFtdy/c+yr7k5cfsJJ0B8lenoTwMuH5tb52IaZSmz+wvL63EQwOg2OhfH/JSJMvWwFWBKlgX5R8rnBWgKtGIYa4kzJTQ5ykxkXq5O0Du6jZW3gPnq3sr0cJ6jmOaGFkDkF51HmJaA+BLrSwiL8cCxxDmPIE1KDGFgnb9/LZqhlYuQ/lJvGVVCDeziG1olBlB8g8M7l/fYgcDpZk1AOnl+v4/DOYZ5zHNkvJyHcIOwMsBsq8M/J0W/fwSP9ukgynwJ5TjA9RUAk6ijiPYWOYHyD+Q/Md5RCHnPKaJjTUA6eX6XPhWxsn7jmOaruTkKWqYCDwSIPtwhLtp0S8A8JyOIMudgY7yfZMMO5OXS23vSSx8rPBZA5Bi1gCkUfR8t9vDOIQXnMYz3RsvbzKH3VAuDpB9EMItNOtxDOYhYPcANbxAmS2pk9BnKQwci3gWKDuOag1AilkDkEYZD8v/it17jdtO0km9/ADlCKITGOOUIcMVSIBhLso9wLY0yH9jzz2QRbdYWh1HtQYgxawBSKOShwZArAEIpl5uIsO2wKuhS/FOuYQ8+9tpk8G0OY63Lk060nFMExNrANJIvKwAzHQe0/RcnTyLsBVatRsxO1G+Rb183w7yCcr963wwtc5jmlhYA5BO6ziPWLIVgOBy8ipldkSotufg30PYg3q5JnQhA56PRr/Tw/uRiYU1AGkkrOE4YjsNA2D5OQ0aZR51HABcFroUR/4LbE1OHgpdiMHPrT7h085jmlhYA5BOqzuO919blk0QkRJ5ORHlBNzv2o6P0ISwHXkphi7FVJS93Orr+4FTJihrANJIna8AvOE4nnGhXi4nw35A+gbkCE/SyY7kxFaWkuRDZuO6qbQVgNSyBiCdXDcAbzuOZ1ypk3vIsD3wWuhSeuE+FrIrjfJu6ELMUiZKB65f72orAGllDUDaqArubwFYA5BkdfIssD0+dnC7JtxMif1trG+CCW85jae2ApBW1gCkTZGRwBCnMdUagMTLyyzK7IDQFLqU5RKuoI4jaZT20KWYbqjjBkBsBSCtrAFIH9ef/sFWANKhQeZQ5rPAU6FLWYbwE+o4AZH0blocONw2ANgKQFpZA5A2JYZ7iGoNQFrUyzvALoQ5SKgrinAcOTnHDvRJDdcNwMqo2rUkhewvLW3E8fJ/FPM95zGNP3mZywj2SsDAoE6Ew8nJbwLXYXrD9S0AgP8w1HlM4501AGkjHl5oykLnMY1f68kC5nIQws2BKvgQZR9y8udA+U3fuV/xG8Ew5zGNd9YApI2PFQBY5CGm8W2idFDHUWjMGwMFRfk+9XJ/rHmNG8KHzmPWWAOQRtYApI2PFQBrANKrwCkIjbHmVAThQoq6Rax5jRs+Vvw6rAFII2sA0sf9CoBaA5BKLfpVhJ8Hyj4K5W+0qfuTKY1v7l/vGWsA0sgagPRx3wAMsj0AqVPUvRB+H7iK1SlxL0X18Wiq8SXr4fVuDUAqWQOQNmW7BTDgFXVLlL8C2dClALUod/Ky2gUgLXzcAihZA5BG1gCkTQb3z1q30+E8pvGjRetQ7gEv8yD6ahs+ZBKqSWhIzIrZLQADWAOQPmUPF+tsIj5JmhVp0rUQ7sPPNMj+UQ6iyK9Cl2F6wB77NRXWAKSN0Ok8pjLIeUzjVpuuRIa/AWNDl9KNEynoSaGLMAGUPLwvGe+sAUgbPw3AYOcxjTtNOphO/g9h09Cl9MDFtOgXQhdhuuGj4c9YA5BG1gCkTdnDC22QrQAklmqGLNch7Bq6lB4ShD/RotuGLsQsR9bD693HBxPjnTUAaSMe9gCUrQFIrCLnA4eHLqOXhiDcSYvWhS7EdMHHCoCPDybGO2sA0sbPUpvdAkiion4PODl0GX20GsK9zNA1QxdilmK3AEyFNQBp42OzjW0CTJ6ifhHl4tBl9NNn6ORuntMRoQsxi7EGwFRYA5A+7p/hVewNOkla9HMoN4Quw5EtGMJNNiMgUdw3AJ3WAKSRNQBpk+U95zGFlZ3HNH3Tqp9BuBUfb9Lh7EeRy1CV0IUYIOPhe6uGkvOYxjtrANKm00MDoKzqPKbpvYKOoswdwGqx5FPOAf4ZSy44llZsRkASKCOdxyyxwHlM4501AGkzyssKwCrOY5reUc0Ak4ANY8r4G/KcwxD2QWmOJaNyEa2alscZq5d6eL0P4X/OYxrvrAFIm3VZCLQ7jWkNQHit/BTYL5Zcwm3kOAERZay8R5k9gTkxZM5Q5hY7Qjgw9693ZQwfOI5pYmANQNqIKDheBbBbAGG16JdQzogp2+MM50hEPrln2ygvkWVvYF4M+VelxGSa1P0ytOkZ9w3AXETKjmOaGFgDkE5uGwBbAQinqFsgXBtLLqGJdvZjPVn2fm2tPINyMMSymWtDari+ctvDxM39LQD3tyVNLOwFmE62AlANmnVtlMnA0BiyvUqWPZkgy79XWy/3A9+MoZaPTg88M5ZcZknuG35rAFLKGoB0cr0CYNPa4jZLh5JhMjA6hmzvUWYPxsvLK/yVebkW5dwYagI4l4LGs+/BfMJ1w6/WAKSVNQDp9JbTaMo6TuOZ7qkKi7gG2DKGbIvIsD8N8kKPf0eenyBc77GmxU2iVetjymXA/QqAWAOQVtYApNNrjuOtwjQd7jimWZ4iJwNfjiGTohxBnfyjV79LROnkmygPeqprcdHsg1lq+1Dios7nTLzvOJ6JiTUA6eS6AYDhtgoQi1bdGzg/llzKCdTL//Xp9zZKO4M5GHjebVFdqmURN9u44BhM00HAp53GtBWA1LIGIJ3cNwBiDYB3rVpPmZsB/yNxlfOolyv6FWOcvE+WvYBX3RTVrT0o8vMY8gxsq7AW7r//3L8fmVhYA5BGYg1A6jTppyhzFzDKey7lBvKO5grUyisoe0Isg15OpUW/FEOegavdy+s8jgbReGANQBr5aACwBsCbaTqILLcAcUzAm8J8vl4ZGOVGvTyPcBDEcOKb8AfadFPveQaqDOs6j6nWAKSVNQBpNMzL2FZrAHwZyUXALjFkehHlECZKh/PIOXkI4WvO4y5rGCUmM0Pt0VQ/bAXAfMwagDSKJrm5PnxjjON4BqCghwInxJBpLiX2o17e8ZYhJzcQzwbG9engr5UNa8Yt9w1AyRqAtLIGIK1c3wZQxjuNZ6BF64Dfx5ApetyvUZq8Z8pxJnCf9zzCjozkZ97zDDyuG4D3aZQ4zpAwHlgDkFbKS07jCeNsNrtDL+swhL8Sx6Y/4Qzq5S7veQBESrRzOMKMGLKdUnls0riijvcA2P3/VLM3/LRy/wY8hBbWcxxz4JrP5cCEGDLdRF1McwU+MkH+RycHEMfpgWWuZ4ba96UrwvpO42WsAUgzawDSSj18AsvabQAnWvQrEMuGuacY4XjHf081ShPCUTFkWo1Obrb9AA7M0qHABo6jWgOQYtYApJWPJVil1nnMgaZZN0S4KoZMcxAO7PJo37jk5PaYDg7ajhGxHVBUvT5kHK6HACmvOI1nYmUNQFqVrQFInCYdSYa/AsM8Z1qEcAA5Cf/pK885gP/9B8JpFHVP73mqWQ11zmMKbc5jmthYA5BWZWYDZacxxW4B9JmqkOW3QD6GbF8nJ1NjyLNiImWyHAkUvOdSbqBN3Q+yGSjUQwNQotV5TBMbawDSqlHagf86jppzHG/gKPBN4PAYMl1AXibFkKfnauUD4AD8jwtenRI3M0VrPOepVrYCYJZgDUCaud8HUFvZKGR6o1k3Q7jMex7lHnKOZvy7lpciGQ4HfG9I3J7RnOM5R7Vy3eC/63XwlPHOGoA0c/8kQIYFNDiOWd1m6SqV+/6DPWdqoYbDESl5ztN3dXIPcJb3PMoZtOju3vNUH7crAGLL/2lnDUCa+Vh+k1ieXa8OqsJCrgU+4znT/yixX2WpPdly/AK41XseYRJFtfMremq6rgqs4TRm2RqAtLMGIM1KvOAhqjUAPdXKSQgHes5SJsOhNEock/f6T0QpcTR4+d5c3OqUucn2A/TQUC/3/60BSDlrANJMed55TFsB6JkW3Qblghgy/Zg6eTCGPO40yjyyHID7A6uWJOzI2pztNUe1UDbyENUagJSzBiDNGngDeNtxVB9vFNWlqKsj3AL4/vR5Pzl+6TmHH7UyE+UrMWQ6k2bdLYY8abex84i2ApB61gCkWTQCdrrjqGvyvH7acczqoSoo14PjQ1WW9SrCkYi4nfUQp3q5C+Viz1mEDH+ioKM950k3ZRPnMRfGciCU8cgagPRzfxsga7cBlqvAccBenrN0ohxKTlyv7sSvzOmA76FFawCT7DTL5Yj+XFyvAMxiY5nvOKaJmb1g0s/HPoCJzmNWg1atR7jQex7lNOrlX97zxKFR2lEOA97znGknWjnJc450amMMro+lVp51Gs8EYQ1A2omXBmAb5zHTrkkHU+JPgO9BSXeQ975sHq96mY1wtPc8yi9p1g2950kb9XD/P2MNQDWwR2jSbiFNDEFxe8rXNqhKkGNmkyrDOQibes4ym3aOBjLM0lGUGMUiViLDSgjDEIbAUl/lZX5uMEINSgYhA5UflSyQ6eLnO4FOhI7KP3cgdFKu/Ch0UK782N3PCx2UKj9mmI8wF/iADHP5DPMQmUxBLwVO9PjnN5gMk2jTraiVRR7zpEuZTRyfAWgrAFXC9beFCaGobajjg3zK1NEgNucboKg7oDyK39eLAu8QnSQ4wmOeUOajzEVYBd+rKMp51MvpXnOkSUEnA/s7jVliAxrlJacxTezsFkA1UJ5xHlPY1nnMNGrTNYCb8N8sC7A61XnxBxiBsBb+b6GAcCot+jnvedLD9S2A/9HAy45jmgDsFkA1UKYiHOI0ZrQP4HqnMZNCVSjwKWAMMJoMn0b5NFL5kcW+SqwaslTTJ4IwhYK+i/I6whsobyC8WfnxDYQ5ZJjN+8xmonwYumBvohHAYxxHfdZuD1YHawCqw1MeYqZ7BaCgo4Cxla8xi/3zWIqMQRbbFa1L/WiqxacQPgU0fLx+89GPCpSAkUBB30SZhTAbZRYwGyo/1vDfVO8nGMI2zr+v7f5/1bAGoBqU+Q9Zyri9pbMhbbpSYg+gmaVDWcQGLH5hX/Jiv1q44kzKrImwJrDVMjd6SkBBX4OlGgOYRYbZfMDLTJSOOIvtpe2dR7QnAKqGNQDVoFHmUdQWlEaHUYUOtgIecBizd1SzNDOWLI0ojQj1RCfvjWURaweryww0oytf2y3xs2VgJGUK+gowE6EJpQmhiU6aaJR3A9S6JGUHDzGtAagS1gBUC2UqOG0AIMu2xNEAqGYosgFKIxk2RCsX/CJ5sgwD7HkVk1QZYH1gfZSdgOj2QhYo6OtAEyzWGAyhibHieyhSJFol29Jx1HZKFBzHNIFYA1A9poLjYSvqeCCQqtDC+ot9ov/oQt8ADEf45D68XfBN+q1V+drl4+/nRUS3FKLVgmaEJso0MZgmxsn7TrO3MxEY7DQmTKVR2h3HNIFYA1AtlKc8XDS3QTXTpwNp2nQlymxRGULSCJULfYaRtunODHCjUUYDu308wqsDKOirQFNluudTKFPJMbsfO+7d3/9XHnce0wRjDUC1KPM8WRZAZcncjZVooQF4odtfNU0HMZyNyLAVwpYoW1EiT/Q4ljGmZ9YB1kH5/Mc/U+RtCjoVYSrRKt9TPT4kysf9/6w1ANXE3p6rSUGnAJ9zGlP4Jjn53cf/riq0MZZS5WIPWwGbEseAF2MMwIsoU8kwFWUq83hmmVkG0b6ad4GVHeZV2lmNCfI/hzFNQNYAVJOCnguc5TSmcDPKDQhboWwJbEk0sc4Ykwwl4Hmk0hAoU8mSpex8Qujz5MWOCq8i1gBUk2bdjQx/D12GMSa4dtxvALyKvBzrOKYJyM4CqCbKE0SfBowxA5vri79tAKxC1gBUk0aZBx4OBjLGmLI1ANXGGoBqozwWugRjTNV5yY7/rT7WAFSbGp4MXYIxpurYp/8qZJsAq0FBxwL7IuyDsiMwJHRJxpiqMhvlGjLcTk5sFHCVsAYgjVSzFNiSDPui7AtsGLokY8yAUUS5nQy3U8e0Pk0KNYlgDUBaTNPhjGL3ygV/b2DN0CWZVCgTDZrtADqX+udOomNraoBBy/nRmO68CtxBmcl8yCMJPxrZLMUagCR7TkcwhL2AQ4gu+sMDV2TcmA98UPma+/E/a+XfM0v9t9P7euoAACAASURBVI9+XlmA0EGGTjroIEsnGTrI0EE7nWTpoIYO5tFJDR000NmvT2eqwiNkGUMNixhEOzUMZxCd1FBmEIMqP5aoYRCDKFODMAwYRYmVgFFQ+VGW+Pcl/9snP1rDkW7vAXejTKad+9hY5ocuyHTPGoCkadKRZJe46Luc7W/8WgRchTAD5U2U91E+QJnLED5A+IDPMA8Rm9WwNFXhFYayiFEsYiUGM4pOViLDqpRZE1gb4Vhs5SstFgJ/ByYj3NXj8wtMrKwBSII2HUIn+5DhcJQ9sYt+Wh1CXm4NXUTVKmiOaM6FvT7SpQw8CNzIIm63lYHksAYgFFWhwNYIRwGHAauGLsn0g3A9Oflq6DKqXosej3B56DJMn80HbqPMjdTzsK2GhWUNQNyiR/aORDgKZXzocqrQ6wizgVmVr9kIm1LmOx5zvsogGhkn73vMYSA65a7A/Qi7+svBfQiTgLHAmMW+NsD2Kbj0GnATcCN5mR66mIHIGoA4zNSV6eBglKMQdgxdTsqVgZlAM9D68cVemM0wZrOeLFjiV7fqZyjzPD43UGbYhzq5x1t8s6QWHYPQhN9NsXuSl/uW+BnVLDMZTYkxwFiUOpQGhEZgPDZYrT+mA9fSzg123HB8rAHwqUU3R/gOcDh237K3PrrQNyE0U6aJLM0Mo7jMRX55VIUiDwC7eKzzJvJyhMf4pisFPQm4xGOGl4ANycvcHv3qWTqURdShNCI0fPxj1BhkPdZZbRYi/BnhamqZioiGLqiaWQPg2ss6jHkcVrnwbxm6nBQoAzOIPtE3oTSToYnBFBkrC/sVuaDHAH9wUOPyvE2WBmrlLY85TFeiYVj/RNjKWw7hcnJyQr9iRBt868jQ+PFqgX68YmCNQfeeRbka4aYeN2KmV6wBcKVJx1PDt1GOwTb0Lc9LwNNEF/omMjQ7udB3paCjiZqKlZ3H/ohyOPVys7f4pnvNuiEZniYaWuSDomxHvTzhPPInjUEDMAFlIrAF9t7RlXnAJISryclzoYupJtYA9IdqhiL7AMcBnw9dTsL8D5gKTEWZSidPsZG8EUvmaOn/dmB/bzmEu6ljP1uiDKxFf4Jwts8MZNmUWlnkMUdEVWhmHBm2RNiCaAVxM2Co99zp8QjKr8jzNxtB3H/WAPRFmw6hzJdRTgZyoctJgIVEn+yfQplKmak0MDPYxbGg+wOTPWaYW1n6f8VjDtMT0Sfppyv32/0QziYn53qL351pOoiVaETZAmVLolWCDbHbBwWEixnMjV5WEAcIawB6I9rN/23gJGCt0OUEJUymzH3UMJX3eSExM8Cn6XBG0kz0yJYfyrepl996i296p0W3Qfgn/t7PFgIN5GWWp/i985yOYCibAltQZkuEfYCRocsK5E2EK4Hf2LTB3rMGoCeKug7KicC3iWaWG+EX5OTM0GUso6A/BX7kMcOj5NjZlh8TpqCXAv3bsNe9O8jLAR7j9800HcRI3iY6T2EgWwBcT5aLqJWZoYtJC2sAutOstWQ4HTgSfxuN0qqNHLlE3QNv0vFkaQIGe8qwkBIb0SgzPMU3fRWdofECPld+hL3Jyd+8xe+LVt2VMg+ELiNBSsANZPm5NQIrZoMrutKiYyjotWRoAY7GLv5dqaXAhqGL+JiqkOUy/F38QTnLLv4J1SjzUL7lNYdyGbM0WRvyyhwWuoSEyQJHU6JIQa+lTceFLijJrAFYXJuuS0GvQmgluvAP9I02K3Jw6AI+1sr+wJ4eM0zjdX7tMb7pr3q5H7jRY4ZxLOKHHuP3zjQdBBwUuoyEskagB+wWAECTrkWW04ju8Q8JXY5z0fG0w4B1HEduIS/+dl/3lP+Nf53A5javPAVadDWEFmANTxkWotRTL7M9xe+5ou6J4uOWRCfVd+ZBdGugzDk0yH9DF5MUA3sFYLquSkHPJ8tM4ESq6+I/DeVMMjSQk1rg5x5y1NOm4RuAkZyOz3u/8Eu7+KdEvbyDeN0MOBRJzEqQj+X//zKENRC+BPwFqJYJfNGKQIYiBT2PmepvQFiKDMwVgClaw9p8A/gpsFrochwpAY+i3M4g7mC8vLzEf41WOV7D9d95yGek4aONmi/g795/fINgjBvRIKg7gH295Qi9IbBNh1DiTdzv/r+KvBy7VJ6diIZq7Q+s7ThfKG8jnM1cfpeYR5gDGHgNQEF3An4NTAhdigMLgPtRJgN3Uy/vdPurW/RRD6cRPk9ewvxZRm/0fwP28JXB2yhY41ebrkuJZvw9tjuTIWwYbAiNr2FXwq7k5KEu/5tqhja2oMQBCAcAeef541dAOYU8dyfqiaaYDJxbAAUdS0FvBR4m3Rf/94AbEQ5iEWuQlwOpl+tXePGP3Oqhno0oaJhpiNHGP18Xf4DL7OKfUtGUxlM8ZhjHIk72GL974mX5/01e49Hl55QydfJv6uV08lJP1ACcCqT5NZJHuJMiD1HUjUMXE7fqXwF4TkcwhNOBk0nvPf7XUf6PLJP5gEf7vGQVDTTyMb72R+TFxx6D5Ys2/rUA63vK8Col8jTKPE/xjW/RWR2PA9t4yrAApSH2DYHR9/6bwAjHkX9DXo7r0+9s1rXJcADRzJRtnVYVnzJwGfDjgXL6YHWvABR0D4bQDJxJ+i7+CxFuRtmDOaxHvRxPnTzYr/tVOXkV+Je7Ej8W/+OAIzkDfxd/gO/bxT/lRMpkOY7ojd2HYQiXeIq9fCPZC/cXf8jwlz7/3gaZQ16uIi/bUaYO5VwgGaOTey5DNOa9hRb9AqpV/wG5Ov8HW3Q14GKEo0KX0mvKPxBuIMtfqZUPnMcv6vdQLnYet0RtbENy/G/8e4gcuw3Ee4JVqaiXoxzvLb6wFzm511v8pRX0r7hvuueQYz1ESs4iqgqtbEeZoxAOxefR3H7cS4bjqZMXQxfiS3U1ANGmsIOBK4A1Q5fTCzMRbkC50fuBI826ARlme4h8Gnk530PcJUV/x/cCu3vK0IEwgZwUPMU3cZulq7CIVnzNBhBmkGHDWJ4UiUYevwkMcxz5MvJyouOYn3hZh/Eh+6F8A9jFWx73FqL8lDIX0SjtoYtxrXpuARR0dOUM+FtIx8W/RLQpbxdy1JKTc2M5bSwagvGUh8iHeIi5rFYOwN/FH+ASu/hXmbHyHupxQ6AynlJMGwIz7Iv7iz9oP5b/e2I9WUBO/kJedqVMHXAhkIbT+4Yi/Jws0yhomjePd6k6VgCK+mWUy0nHEtNrCL9F+T15eS1IBQU9BXD/aT3DOK/LZdGGzmZs45/prWhD4GP426C2gDL13qfMFXQy0fP4Lr1MjjGxn3DZpkPo5CCEbwGfjTV333QAZ5HjIqe3SgJK9wpAQUdR0BtRbiD5F/+HUL7APMZUPu2HufgDZPk/L3HLHO4l7keGet/49z27+FcpkTKZlG8IjKbXuT/vQrglyPHWtbKIermZvHwOoR64FEjy628QcB5FHqGgY0MX40J6VwBadHMy/BllfOhSurEQuA64lLwUQxezhBZ9GmFTx1FnkqPWy+a5Nh1XGeziZ+Of8iB5Pm8b/6pcUS9D+a63+Bl2o04e9BK7qEehXO88rrAlOfFxW7D3ZurKtPMNhBOBdUOX0415wEnkuDbN7xnpWwFQFQp6EsITCb74v4NyDlnWJy/HJu7iH/ExFGgcrWznIS6U+CX+dv13kOG7aX4hmx4azI+BN73FL/MrVP2cIqp8yUPUWdQxzUPcvhkn71MvFzGPz6AcgfJM6JKWYyTwe4rcznRdNXQxfZWuBqBN16DAXcAlRMsxSfMiwvHMY33q5SfUyluhC+qGjwYAlK86j9mi2+B3k+HFtvFvgPC9IRAmUOQrzqPO0PWAzzuPC7cksvGdKB3Uy03k2RzYGeWe0CUtx/4M5j+0qevV1FikpwFo000p8R+EvUOX0oWngcOYQ46cXMlE+TB0QStUL63A8x4iH8pz6m5IiaogXOQs3rJeocTPPMY3SZPnRuCfHjP8jCYd6TRiJ1/Fx/t11vPu//4SUfIyhXrZB2EThNtCl9SFsZT4FwU9OnQhvZWOBqBFD6LE48B6oUtZynTgAHJMJC+3sJN0hi6oV8TLKsAohnKQs2gFDsLvaFHb+DfQiJQRrxsC1ybDD51FU80AxziL94k2xvOsh7h+5OQ5cvIFYGN8rWD23VDgWor6W2bp0NDF9FSyNwFGQ1/OJDq2N0kKwNnkuDXI7llXokN8fCx9P0xe+j/so0kHk6UZGNf/krowEDf+NelgYCTCKGoYTpmFCHPJMJfxtA+oPwu/GwIXINRWxm/3T1F3QfGxsfBn5OUsD3Hj0awbkuEsotuDSbqWTaPMwd4fCXUgSX9oS3pZhzGPaxG+GLqUjwkzUM4hx83V8hwoRX0CZWvnccuM6fcLoKAnEh3d7EP1TvxTzVJkU5TNgByQQ6gjeoSyuzMxOoDXgCJCK2WKZHiOTv5djVPQKhMCi/gaHCb8kZz0f1m4qDd52QCoTKBefNwGjFeTNpLlZ8ABoUtZzJuU2ZMGeTp0Id1JZgMQnSx1JzAxdCkVb6Gcxev8IXXL/CvSot9CuNpD5B+Tl76v3EzXVRnMDOBT7kpajHIe9XK6l9ghtOpnKLE3ws7A54BVHEb/EHiM6Cjt+8jLdIexw/L1aF1EybAZddL3ZfbodTAH94eZtZCjsapWfIq6A2UuRNgqdCkV88hwoLfHQh1IXgPQpOtTw0MJecSvHfg1g/gF4+T90MV4EX0Keh33bzAvkmN8n99gCnoheBuv+gqLyLOxzPcUPx7TdVUGcUjl0Cs/j1927XmUGxBuCjrQyoXoNuM/gO09ZXiYHLv2+XXQoscjXO64JoBTycsFHuKGFf19HgL8EvhM6HKADpSvUC83hy6kK8lqAJp0PFkewu+0t54RbiPDKdTKzNCleNeiN3u51SLsSE4e6/Xvi6ZsFfD33P8h5CVpm4h6rqA5hNMqy8Ihj7kuA3eT4RfUyb8D1tE/0Yz3pwFfz+/vR73c1fvfp0KRZ4g2vblUosS6NMrrjuMmR5sOocR3gLPwtYrYG8L3yUn8R0evQHKeAmjTBrL8g/AX/+dQdiInXxgQF//IH71E7etMAOUX+Lv4/5Ocp1HIvrXqJhT0FqCl8mcb8uIP0fvHfpR5koI+SEF3SuUZ6nmZjnCVt/jChUzT3s8tKbAZ7i/+APdU9cUfojHDefk1JWqB34YuB+ViCnpB5YmOxEhGMa26CSUeBdYOWMUClJOZw0Tq5ZGAdcQvz4NEm79c6/1MgFbdyuPGz06UY1J337NN16Cg11LmGZK34/kjuwAPU+AuWjUJS6+9dQ7g6zZfjlF8s9e/S/iah1oA/uApbvI0yrvk5dso2+Jn7klv/JAiVyapSQ7fADTrZpSZAqwesIq/A43Uy6+qbpNfT4iUKgcquTayVzMBVIWyx6E/wtWVAUjpoJqhRb9JiSKQjiEjwt6UaaKgZ9GmoVcoei4nb6MeHzdWflI5zKdnXtZh4OVwrdeZw988xE22enmCeWyOcjIQcu/Pt2nlwqQ0AWEbgDYdR4Z7cbtjuTfeAb5Mjj3Iy6xANSRDxtNO6N7cBmjlAPxtxvqADOd6iu1eUdehwBSE3wJpmzU+FDiXEs/QrBuGLqbHargC8HWc9ep0cEaPf/V8voCfE06vH5AfcuCj8cK/okQDcEewOpQfUODsYPkXE64BmKFrUuJ+fD2Du2K3kKWevExK3ZKwDzkpIDzpIfLONOsGK/xV03QQyvke8keEXyb8bIZPtOjuKM8i7Bi6lH6qJ8NUCvq1pHzi6VatLAJO85jhpF4cI+tn+V+51kvcNGmUl8hxIMoRwHtBahDOpqDupkX2UZgGoElH0sk9+Jrw1r15KF8lxxdTc0GIS5nrvMTNcNQKf80IvgXUeskPLzOcSz3Fdkc1Q0F/hnAfYW+JuTSM6NS0G1IxIjXHrcC/PEUfTPR4WvfadBzRLAfXHk/VLTCfRJR6uYksGyE8EKiKCyjqsYFyAyEagGk6iCy3EmLIj/JvsmxCvVxvn/q7MJRbgIUeIh/T7RGpM3VlhJ94yBsRzmQ9WeAtvgtNOpgiNwBnhi7FkyNZxH29ug8egohS5gceMxxGs3Y/ebPsZe4/6ADa/NdTtfIKdexeORsi/vcI5UoKemjseSvibQBUhZFcDewea97oeeWfMp8dBtCjfb03Vt5DuN1D5DEU2HO5/7WD04HVPOQF5Rnq+JOX2K406Uiy3AkcEboUzz5LB4/SpGuFLqRbDfIkeDwlL8PFy70lMkVrUC8bPufSzl89xE0/ESUnv0HZBJgaoILrKKqPxz1XKN4GoMjR+DnVqjtvA7uRlx8zUTpizp0+ZU8zAYTju/z5aH/ASV5yRnlPTvSBTU06khoeIP6mOJSNyfI4BR0dupAVOJ1oEqgP21Dk4C7/y2j2wcfj0MqfUz/50rd6aSXLjsBvYs48HOV2mjT2gUXxNQAtuhFwZWz5IPr0V2YieXk41rxpluchoP8nmC1rd1q0bpmfFc7F10Ab5Z5E/9036WBquM3LYUzJNg64n+ma3KcboqeCfO4bOb9yMuOSfJ1OmLXl/x6JBggdh/AV/NwOXZ6xZLm521ulHsTTADTpSIRbiB4PisskRrJdGo5kTBSREuJlJgAIS254iUbaHuklF5Sp4RRPsftPNUOWG1B2C11KIBsymLuYpsNDF7JcQ/gF0QqiD2PJLrXTP3pkcmfnmYQmaoMsbadXTm4gwzZAnI+Hf54iv4gxXwwNgKqQ5Sog7z1XpBzNXeaoxG/8Sip/p6MdTZOOXOzff4yv70Hh99RKs5fYLhQ5HzgsdBmBbccIJiX2EcFoT8xPPGb4UWXgTyTr6dM/XGubnvugTp6lnc2B+2LMegoF7fr2kAf+G4ACXwFvn/KW1o5yCDm5xL7h+yEvReAJD5FXIlv5XmjTBvBwxnlkPp3JGLTRpYLuj7+TDtNFOJBWj3tA+msu1wBFT9FHM6+yKtakn0L5soccHWS40UPcgWGC/I857IvyuxizXk2brhFHIr8NQJuugXCx1xyfmAvsQb3cFlO+6iaeZgIIx6MqlDgbXzPthQsSe9hJi47B1+FLaaVcQKsm5Qz3JU2UDhR/A1uE0yjoqMrtgGEr/PW9d6fNO+mnnaSTPN8iWrGMw2qU45lb4rcBKHMB8YwxfZMsnyUvU2LINTAs5CZ8HI6iNFaeBvH17OscFvIrT7H7Z4rWIPyFcKOvk6qGMn9hlibzzyXP3YCv95bVEb4Hy3lKpr/ENv85IaLk5adET7GVvOdTvkSL7us7jb8GoKg79Pk42N55lRLbUSvPxJBr4IgeGfKzCoDHQ1fgrMQ+7jSa7wJbhi4joTZgIT8LXUSXRJQsPwD83FYscyp+jkF/iTr+7iHuwJWX61AOAPw/Ui5c7Xtwlp8GIJrrHsezlG8h7EqjzIgh18BT9vZ36OsZ8BfIJXR5vaCjUc4JXUaiCd+hWTcLXUaXauUZj0/H+HoS4kpE/H9aHWjq5W7gYPw3AaNp50KfCfw0AKP4LuD7FLD3EHYjJwXPeQauBmkj3h2w/fXDxL7hKb8CRoUuI+EyCL9BNfwx5V07kxDjYvtmASV+H7qIqpWXOxEOBfyerCh8w+eUQPcvtGk6HPV6ohbAPDLsQU6e85zHaMzDm/ruIXLcH7qILrXoNghfDF1GKghbUeTw0GV0KSevon4/kTmjTKJR3g1dRlXLyWSUw4hGzftT9vdEk/sGYATHAD4fYVCEw6iTf3vMYT6S517iHYbRN8pZCX70s1oP+PHlzMSuApS5EH/DgVy6PHQBA0K93IZwgtccwoG06aY+Qrt9kU3TQYjHR2Yip5KTv3nOYT4iUoppP0d/3Eu9+Jhb0H+tugnC3qHLSJk8RQ4KXUSXGmUe0oMjfcN6hHp5PnQRA0ZOrgQu85qj5GcgldsGYBRfws9u1o9MIsdFHuObrpS5lnjnYvdWXM/n9l6Z00OXkFI/SuyEwOFchZ/zMtwQzxcjs6wc30e5x2OG/WjRzV0HddcAqGYqj7P48iwj+GaCl3mrV3Qv8abQZSzHneRlWugiutSsa8NyTn0zK7IxrWwXuogurScLUK+PsvbHf3mNu0IXMeBEZ6h8CfB33HyGM9yHdKXA1ggNzuItqYMyX7bZ/gGVE7oZMOt1Vnv/CEcQ95Hb1cXHaFw35nMt8GLoMrrwG3YSvzvTTdfyMpcMR+BrUJCyLy26msuQ7t6cxOPBJsrZNMgL3uKbFWuQp/FzPkDfCbcldgCUqlSOFDV9pRzGLI3zBNGemygdng8K6gt79C+0aHO6r137g8i4vc66aQCiM4wPcRJrWU/xekoeval2yhWhS1hCOXFvwJ+YwSb4n4VR7VZmEd7HofZZHTehJOfESXv0LxlynAf800tsdXuwnpsGoMD2wNpOYi3rWFvSSogytyK8EbqMilsSvdO5zH6hS6gSyW0AoqFTSdqAao/+JYFIiQzH42d09DY06XhXwdw0AP6GnPwlsRu8BqJGaUe5JnQZgJJN+FhdZafQJVSJnRP7NABAntuAp0OXgT36lyx18izq6XZMxt0qgKs9AHs4irO4Tkr8yENc0x/Cb4njNKzu3UytJGfpdWkv6zBgm9BlVIl1KFAbuojlip5KCj/oyR79S55OziI6pt4tYRdXofrfABR1dWBMv+Ms63o75CeBcvIqcHvACsrAuQHzr9h8tgEGhy6jagg7hy6hW9EI6scDVmCP/iXRRvIGcJWHyBOZpoNcBOp/A1DG+XCCiqs9xTX9FXIzoDKJvBSD5e+ZLUIXUGWSfYSyiJIJugpwpe2TSijlKtzvBRjKCCa4CNT/BkCY6KCOpT1Ljv94iGtcyPMPhKYAmUuUEzuA5RNCPnQJVaYudAErVCf/AP4eIPMCSvwhQF7TE/UyG7jbedwMW7sJ03/uP+0o19rEvwQTUZRLAmROx20hJRe6hCqTjj9PCbBnyR79SwP3DZqylYswLhqAjRzEWJIE6aRNb2SZBLwWY8bOBI9f/US0Y91WANxanSb9VOgiVignTwGTY81Zw69jzWd6L8sU3G+cTsgtAFjdQYxPCG+Qo9VpTONerSyCWN98/lBZTku2F1kJWDV0GVVHvGw0dq/MWfh5/rsrdyT6aRgTqZUPgCcdR3UyErh/DUA0AXAlF4V8EpPHbPk/JbL8Fng/hkztlPhFDHn6r8yo0CVUJXH8PuNLNLI8noOzMok/lth8RHjUccQENAAFVnFRxFJmeYhpfKiVDyq7XH37PY3yUgx5+k+tAfBkZOgCeiw6u933rIwplbnzJg3KuH7/GlaZN9Iv/VwBwMd9ubc8xDS+lLkUWOQxQ4kyF3iM75Y1AL6k58812qj6R685lPO8xjduZTyMUJ/f/1uN/WsAMqzc3wK68I6HmMaXRnkd4QaPGW6jQf7rMb5byojQJVSlTIpWAADKnO9tJ4DwOnke8BTd+KAePtiWwjcAPoZPpOuFbkDx92ieJubwoZ5Rr6shA9nC0AX0Sob18HWCgbIys718+DK++NjDkmF+/0P0R4kP+1tAF9b0ENP4oppBPZ57Lxzm4l5XjNzP/jaQtj9X5XSP0YexkGM9xjeulfm085jS/9Xy/u4B8PGiXMtDTONLgb0RGjxmWIMPOdpjfNfSdaFKC2Fe6BJ6rKATEXb1mkP4HtN0uNccxqW1HcfrINf/10T/GoA3eIvocBaXfIwWNr4Ip3jPoZxKmw7xnseFTIouVOmSnsZKOSOGLKszkq/HkMe4IG5G9y4W710Xj8v3rwGIDqCY098iljIhFVO/DLTotsD2MWRanzJfiyFP/9XxP/w+FTEwdTh/n/GjWTdDODCmbD+kSe3UyaSbojXA55zGLLvZLO9iEqDrDWBCDTs6jml8EE6NLZdyZir2AoiUgLbQZVSZBTTwSugiekRiPap6XbJ8OcZ8pi8+zURcD8wTnDwZ5aIBcD+MQvmC85jGrVatB/aLMeNo5vOtGPP1R9KPK06bNkRc32p0r1m3Rtg71pzCaZWJrCapMnzReUxxc911cRyw6xnHAIfYbYCEK/PDAFlP5zlNw3P2hdAFVJl0NFQS4LAqZTytHBx7XtMz0fvVV53H1aQ0AI4KWcoQshzlIa5xoUnXAo4MkHlNhqTi8afpoQuoKsILoUtYoRb9rPed/8tT5tTKKZQmaYbyJfAws6HEVBdh+t8A5OU1cD7nGOA7lc0TJmmyfAMYFCj7qRQ02WNhO5wf/DHQPRy6gG6pSpBP/x8RNqU1ls24pjdUsygneojcRqO86yKQiz0A4P6oQ4A61vY4YMb0TdSUhbwXvxpwQsD8K7aRvIFix7S6MZ9ON592vGlhV2CHoDX4udCY/ijyVWBD53GVJ1yFctMACLc7ibOsc23YRcKsxf7AOoGrOJlZ6uMkSncyCf/Umh6P0SjtoYtYLlUhw89ClwEcSLNuELoIU1HQUQg/9xT9VleB3DQAc7kTvAxAGc2ohH/aG2iE40KXAKzCQk4KXUS3ytwfuoQqkew/xwJ7A1uGLgPIkOH40EWYCuE01MP4X3ib+dznKpi7jSMtej3iZePefDJMoE5e9BDb9EabNlCiKXQZFR9QYqyre2HONelgsrwKrB66lBQrU2IdGuX10IV0STVDkf8Am4QupeI9FrEuG0u/D4kx/dCqm1BmKj72SQlXkJPvugrnag8AwJ8cxlrcCEpch6rLWk1fdCZqB/5K1HBy6CKWK1q2vil0GSn398Re/AEKHEhyLv4AqzDEnp4KapoOp8xN+NokLUxyGc7dRfV1Hgb8vFiFHWlN+JJvtYvuaSXrzUU5gTZdI3QZy6XcELqEVEvyn180fCfOqX89dYJ9WApoJBcC9Z6it1HrdkOsu2+U6FyA653FW5ryC5q00Vt80z3hy0DSHr8bQTnGccS9ledplGdCl5FS7zCfO0IXsVwFDvN8CmZf5Sny+dBFDEgF3Q88VUJrKQAAIABJREFUrpIKV7s4AGhxbjvFGi4GFjiN+YkhZLmd6bqqp/hmeVSFciI2/y1LOY5mdX3UphsiivDL0GWk1CVMlA9DF9GlKVpDhnNCl9ENeyQwbi26Ebhdnl/Km8zlatdB3TYA4+VN4EqnMZdUy2ButtnXMSvw2YR+2gEYSobTQhexXDluIy2jbJPjfQZxRegilmttjkIZH7qMbuxBUfOhixgwmnQthLvxuUKqXOCjIXZ/r6iDi/C3CgCwO0XO8xjfLE0StfmvK9+mTdcNXUSXREqofb/20uWMk/dDF9Gl6PjdH4cuY4UUZzvFTTde1mFkmAys7zHLm7S7//QPPhqAjeQNhN84j7ukkyno0Z5zGICCjobYzjfvq8GUODN0Ecs1nz9BCubZJ8NbtHNx6CKWK8vXgDQM3Pmq3S71bIrWMJ8bEbbymke5wNejnX52i7ZzIX5XAQB+T4vascG+Kd8E0nAmw9dp0brQRXRponSkYBUlGZQfMkH+F7qMLkUnu50VuoweGs4gvha6iKo1RWtYixvB+9H1r/v69A++GoBoFrrvwzEyCDdT1L085xm4pukghG+GLqOHav6/vfuOk7OuFj/+OTObbCBLQGooAUKyO7NZQo0IClKlhSKQSwelKMJFrkq5KlwQuMJF8SdNqdIEDULoUiyEqpSE6u7M7CYECCX0kg0k2Z05vz+eDSZkN9ny/T7f55k979drXwkp5xxgZ54z3woJHmrPyWOJ3taWDI+TT/B/o2GcAiRzwWl3hBPtQjUPpmoN63AjwsHecykn+jzYyd9+0XlciP9rUYegTKGgO3jOMzjVsR8+3vCEDucxo7j7UdKwl7IsSyenAck8uTC8DpQTXG9zcqZF10Y5zUtsYS5+vi82YCT7eIg7eKlmWZvrUQ7xn4s7aJQpPlP4awCiYc9jgYq3HJFhCPdQ0O095xl81NvWP3/f1MqvEnsQSjQyZjdcdkc5mUZ5KXQZPcpwLuDnYjLlIsTTMK/YAWrOtGktRW4CDosh28eI/7sd3N0F0JOC/grhR97zwAKEg8nJnTHkqn4FHY94GcGZh7AhylPARh7ig3IojfJHL7FdKOovgFNDl5EYwu00MCmxn/6LugnwPH7eLz+iltEsZDjKK/hYb5NlC+rFDqQaiFm6Cgu4A9ghlnzCd8jJNb7T+P+ktJAzgVe854FalCkU1Ra+uOBv0drvycl7qMdjVIXzmaXDvMUfqHZOB3d3eqfcLIZyTGIf/pFf4u/D0oWMlo/IyRsIt3rJULYtgQMyQ0exkMeJ6+EPU2ngd3Ek8t8AbCrzuqYC4niBZ4BrKOmPUfU/ulGtotXOh3uJXek6KGoONwOtXnLABixI8JveBOmgg/2AmaFLCewDMkxktHwUupAeFXV38Ha07vvAJZ//k3CxpzwHUtSkHeOdDkXdhE6eRInrGPp3qeFbcTXE8cyV5uTvxHl4hnI+JX7TdWiH6ath7A/UOY+rPMo4ifbD7yidqNfjVE+npMm9ine8vE2W3RDeDl1KIJ9RYSINUghdSI+mag3ChR4zXEBe5n7+Tw3yFMKTHvIMRzjIQ9zqVtD9gceBdWLKWAEOZqzMjilfTA0AQI7zgLtjywfHk+VvzNA1Y8xZHXwtVJMvHO+a5xaUFi+5YGU04Xu262UmGfYA5i73z1aXMsIkxomPh50763CUt09+wtu0d3tsup9RgArHeolbjaZqDUX9JcIU4r0A7cfk5aEY88WwCHBxM3VlOngGqI8x62yU/WiU6THmTK9mXZ8sr+D+e+NN2tmQCbLkFsCCHoBwm+Nci3SiNNEovqYa3CjqBOB+ILkjFu7MR/kPGuXe0IUsU7PWUcMMlLW8xFdOolEuXerXp+kQ6pgFrOs8Z4Xxn4/Ame4160gy3ILw9Zgz30aOA+NeCxPvdqkx8jEV9gfivOVrFMLjFDWOrRvpl+UIfDSGwlVLPfwB8twO/MN5vkiyDwdaJC/TUL5GPItlQ/oI2CXxD3+ALKd5e/gLM6hwZbe/N0E6UE8XqmXsZMBlKul2ZHkuwMO/ABwdYiFsmIVyJT0IZXKAzJfTzimJvWY0NFWhRAn3IzSdVFifcfJWt7/boluT8bgqXvg6OXnMW3xXWnRtMtwHbBa6FA9ep8IeqfgEWtJ1UdqAFbzEVw6gUW7v8fcLuhrC64DrnSzvk2Vd6mWB47jpNk2HMJzTEc4A4r5p9j1gW/IS5MbQMAem5OQWNMjlLcdTxzRKummA3MlXZBv8TM9M6fHhD3TNBd/iIW8kyYcDLW6cvMVwvgo9fDpMr/sQNk/Fwz/yv/h6+MMT5LljmX+iUd7Hz93yq1G2kwGXUNI8dfwD4Szif/h/QoXdQj38IVQDAJDnfPC6wrYnjShPU9IfpuKhEKeMt1PqevNA+wmw0FP+L9PKgZ5iuzVKPiMv30M5FGgPXc4AlYHTyLE3OXkvdDG90qqbeT2tMcPJvRrqFa7yVIEtBgRQzVDUk1CeAyYEqGA+wl6Mk2cD5P5c2L3y0ZDzVYT7pnyQMt+mSeYEyp8cs3UF5jEHGOE48ivkGIPI8o+ELuovgVMc51/kVWrJM1rme4rvXpuOocxvgN1Cl9IPzyIcT06eDl1Ir0XvR38FdvYTn8k0Su/OkI9qeQEY77yKCqMZJ686jpseM3QUHVyLsEugCjoR9iEn9wfK/7mwn4BFlBzfA08nYC3fbmRppqRHDvqDgz5lX9w//EG5sVcPf4Bafo6/y3KSfThQd+plJjn2QJkEvB66nF76CDiBHFul6uEP0Moe+Hr4w0KEn/b6T0ejBD6OghWEozzETT7VLAX9Pp00B3z4K3BYEh7+ELoBABApU+Zw4MFAFayKcgOtPEir+jmbPg2Ub3uJW9OH612jE+EG7+FA3RFRGmUKZRq75imTepvgZ8DF1JAjL5cjUg5dUJ9M1RrU65TkJeRlVp/+RpmbAPcL9oSjUI17vjusgm5JiacQLiHevf2LU+BY8vKnQPmXEr4BAGiShSzgACDWQxCWoHyDCv+ioKcMuju0S7ou8A3ncZVHqZe+HXdb5gqgzXktkZWJ80RKl5qknZycA2yIciqQlGmrTxDOp4YNycsPGCvvhC6oX9bmWKDRU/QPWMh5ff5bTfIBQs+7BfpvfYreRjqSpU1HUNSLEZ4GtgxYSQdwEHm5NmANS0lGAwDRnQFZ9sTnVbHLtwLCL1mbp2jRLQLWES/lcHx8LwjX9/nvNMlCxNO96wDKCRTU9bxqfPIyl0a5kFpGIxwM3Ee02C5uj6McxxDWJyc/Te2DH6BZVyVa+e/LOWwiH/brb6qXaQC67mepXqpCUSdRpgCcRNhn3TwqTCQvoaa6e5S8eW/VLCV+AxwXuhKUaxjCGal+c1ueaLFRM+4//XwKjFzirPO+1fQIsJ3jmhZ5jBzbJ/wGut5r1pHUcAjKROBruN8/DlGT8RTwABlupkFe9pAjjKJeDnzPS2xhBp000ST92+GimqFEG+6vzu5AWCc1uzP6oqRbdU3n+Hr/6IsPEPZI6nqY5DUAsOgBcA5wRuhSiM5pP5csl1TlARrRi+UpD5F/T16O7PffLumXUXy+aI4gLz72Woc1S4cxn60RdiYa8swDG9L31/rrQAnheeAhlMf61cwlXYtuQYZp+HovXN6hP71R1NPxMUIh/Iic/Np53FBadSMqnAeJufjodTLsmuQLr5LZACxS1JPwdTlG372McAoN3Fk1nxwBivob4AQPkXce8MUWRb0ZONRNOV8gvM1Q8om+itaVqCmoBzYAViJDHbASynCUz4C5CO3AXCq8jtJKk6T9DILlU83QyhMoW3vK8AQ5thvw+0V0MuFruB7GFpppYHzq38+adVUynIFwIjAkdDldCpTZnSZ5LXQhy5LsBgCgoIciXAck5WrfqWQ5mXp5LnQhA9amtZR5C/iS48ivkWN0r7f/9aRFNyBDCah1U9ZSLiEv/+Uptkm6oh4F+FuUlWFrGsTN6FpJ70HZy0msxVXYJvG3MvZkmq7IcE5AOB1YJXQ5i7mTLN+iXj4JXcjyJGcRYE8a5Q8oOwA9HyUbrx0p8ywlnUKLbhy6mAEpszfuH/4ANwz44Q8wTl5F8TlEeSKtWo3n7pvleVG/BFzgMcMtzh7+4G8xYJb0XZL2gg6noCezEi8j/JLkPPwVOJMcB6Th4Q9paAAAGuWfwASE5HSqyv5keJGiTqak+dDl9It4OvI0yw3OYg3l/4guzPAhQ4Xf2JHQg1AtZwNreIq+kOhoa3fauQ8fWz+VSak5E6BZ6yjqadQyC+FCb7c19s8nKPuQl3OdfPiJSXre+PLyJhl2AH4XupTFCHAQSjNFvZFmHRu6oF6bqSujXo6YfbzPe/+XZYx83HUAji9fpeTx7HeTPCXdFOU/PWbo+6E/yxNdE3y905iRkZRiv/62b4q6EgX9CVleIRq18dW49VcR2CoV11x/QXoaAIB6WUCO7xAtWusMXc5iMsARZClS1GtTMSLQwV74WTBzvfOIc7ka8Hlj1i+6hoRNtVMVlMvw997Xv0N/ekO9rVdIyqr5JbXpGpT0TOAVhPOA1UKXtBThdrJ8JeSNfgORrgYAoqNR83I5wk7Am6HL+YIscBRKgaLeRUm3TfAdA5M8xPyMrId7HaJPP6c6j/tvqzOUn3uMb5KilcOBbT1mOLffh/4szzhpAx7xEPmARJ1+2qbjKOrVlJmNcjawauiSujEPOJYGJqVlvr87SX049U5BVyPDVSj7hy6lR9G6hV/QwN2JOR+9WevI8i7uD4y5ibwc4ThmJDob4gFgVy/xo4OfvkyjTPcU34Q2U1emk5LHueMC7WzKBOnwFB+Kejjwe+dxld1olL84j9vr/CoU+QbCj0j67ZfKU1Q4nCaZEbqUgUrfCMDiGuV9GpgEHEPUkSWPsjXK7ZQoUNDjmK0rhC6JLHvg47S4/hz92+vYoijfJzpT20sGhN/agsAqtpCzPC8cO9Hrwx9gOFOIDidzSzjQeczemKXDKOrRtPISwoMk++FfQTmbeWxXDQ9/SPsIwOKadSxZbga2Cl3KcrwHXEeWK50uluuLok7G/bzfbHJs6H0FbEl/jvbhWtW+Er5LTq72Ft+E0aIbk+F5omk6H/5EXuKZSy/qjYDrkbYPKTOy30cW91VRc8CxwLeBNNzQ+TLK4V070qpG9XzaaZIZtLMtcC6Q5G0YqwOnUmYGRX2Qku4X6/zbLB0GTPQQeXIs21/mcx7g73Qt5f8oaPIWG5n+UxUyXIa/h/+n1HCKp9hLy3CLh6hfooZdPMT9t+jT/mEU9BGilfOnkIaHv3AVsFm1PfyhmhoAiBaL5eVMlG1RWkKX0wu7otzO2rxKQX9Gm67nPeMCdgXqnMcVbnMeszubyjyEH3jMsCpwvsf4Jm5FDga29xZfOJexMttb/C/q4K+A+4WGFU+7AVp0Y4p6MQt4E7gJSfi2w0WiZ8i25OS4qrwHg2qaAvii6Jjb04guFErKMcLLUwbuQbmWeTzgZT6xoDcg9P+Snu7NJscGsZ0pHi0IvA/Y3VcGMmzj9CQ3E0ZRVyL6tLmOpwytZNkk9ovCinoN0donlz6hlrUYLfMHHGmmrkwHBxAN828z4HjxWoByDhUujG1KJJDqGgFYXL0sIC/nApugPBq6nF7KAt9EuJs63qCkl0S34jnaStisQxH2cRJrSVNivVBERKlwEtGJa14yUOG3qTkhzSzL/+Dv4Q/KSUFuCc0w2UPUEV0jhP0zS4dR0AMo6RQ6eJvo0LZ0PfyVv1FmYxrlvGp/+EM1NwCL5KVEnh2JOtE03fy2Bsr3UZ6mRIGink6LbjCgiFl2ws+52fEM/y8u2hP9C48ZtqDV0x3xJh6t2gj80Ft85Q4a5UFv8ZflDR4G3vUQuW/TAFO1hhb9BiW9jgW8jXBb17ZsXxd4+fIucDh5dq2WFf69Ub1TAN1p1pFk+DXCwaFL6TflUYQbqWVKn6+yLerVRI2QS2+RY70g519P0xWpo4Xomlsf2qmwMePkVU/xjS+qGUo8hL+5//lUyAf93ijqb4HjHUdtZzhrMko+6/FPqAptbEWFQxEOStiZ/H3VgXIpFX5Ok3wQupi4Da4GYJFW/ToVfg1sEbqUAegEHkG5C+Xu5b4RTdUa1uYtXK+6FS4jJ993GrMvirovcKfHDA+SY4/U35k+2JT0WBSf2znP7JpiDCd6H3N/MqAyiUaZssSvzdJhLGQnlL2BvQD/C5b9u5UsPwm2HTsBBmcDANEnhCJHdJ0x7W+OMD7Po9xFDXcxlueXemAVdUfgIedZlR1plIedx+11fhVK3Avs6S8H36ZR3N1waPxq0bXJUABW9pRhJrVs7GSx3EBEoxyzcf/+dSt5OZCXdC2GMBHYm+gEzhUd5wlDeJIKJ9Mo/whdSmiDtwFY5AUdzlBOQzgVCH9KnxuzUe7uGh14hCZZSEEvQ5zfgPYuOdYOfsRxm46hTDP+5h0/pMw4msT9dazGvaLeip+7LiIZ9qJB/uwtfl8U9dfgfFtsB/A8MIHqekbMAv6bHLfZiF6kmv7nDkybrkeZ84HDQ5fi2MfAA0RHbLpeAHgleUnGQrmCno1wprf4yh3kOcDeOBKupN9EucNbfOFecrK3t/h91aJbk6HqDqhx7D2E88nwmyA7NhLMGoAvKuiWwNmIl9PyqkuFXRknfw1dBgCzdQXm0QJs6DHLgeTF/W2Hxo1o73kL/qb0FpBhHA3ysqf4fRdNgc3C30LYNHsX+CVlLqdJ2kMXk0TVvw2wrxplOo2yFxm2BsJs8UmHD/iUh0MX8blR8hnKSZ6zXGbHBCdYB+fjd8//BYl6+ANdI1I+jgZOs3dQTmUBo8nLL+3h3zNrAHrSIE+Rl92J7g7/e+hyEuhO7zef9VWj3INwr8cMayJc5DG+6a+Sbov7LXGLe5V5XOAxfv9lvRwKlEbvoJzCAjaiUS5kU0nmDbEJYg3A8uTlCfKyC8oOKTpR0L+4zv7vK+G/AJ/zfIfTqjY9lCRtWut5yx8IP2CCfOo1R39M0yFALcJ7oUsJRngb4WTaGU2j/Moe/L1nawD6Ippv2wE4DX/n0KfBApSjyPIU9cxK3MK4kp6F8jOPGd5gCE2MkY895jC95XsBKDxAjj2Df59HB/CMpsKWKFsAExC2AYYHrSucfwH/j1r+GHxLZkpZA9BfLboxWU5GOQwYErqcgD4CngWmIzxLmek0MjPIyYCLRAsCXwLGeMshXEVOjvMW3/ROi25Mhmfx9xrsQNmYRmn1FL970TklY8mwBcqWRIeWbYGfo7zT5n4y/D/q+XvwpizlrAEYqKKug/J9hOPxd/BI2nwCPIcyHZhOhmdpoDXWpsDXwUdL2om8TPWcw/RENUsrj6Ns7S2H8DNycra3+BD9e7TRsNgn+y0RNgdW8po3XeYj3IhwEQ1SCF1MtbAGwJXo2tGjiS4fsS05S2sHngOeRXkepcgKFPt8n0FflPRKlO96iw8vs4BNbM4xkIKeiHCpt/hKCzVs4XTveLSLJIeQR9is64G/GYN3GH/ZhLdRfkOWK6gXH5cfDWrWALg2VWsYyb7A9xB2CV1O4glvU6FEhiLRve0lhCL1vDrgEwajfeHNwLouSu3BReTF341zpnvNuj5ZmoE6TxkU5Ws0St8P2ZmqNazJhmTIA3mEHHT93PVdHNVJgb8CV1Pm7sFwLW8o1gD41KL1ZPgucBRg+8f7ZgHQxqKmgMUahLzM7XWUVp1IxevWwP4/KEz/qApF7vF6WFdvLrlq0xFUlni454EcSj0w1Ftt1etN4FrgWvIyK3Qxg4E1AHGYpcNYwAHA94jOFTAD8yZQRJmJMBvlNYTZVJjNCsxeakVwUW8CDvNYT4Esm9sxozEp6UGo173vrwPjqKWDT1mPLOujrE+m60fYiOhhv7bHGgaLCsJ9VLiKOdzPjtIZuqDBxBqAuEW7B45DOQJbNOjLu8Bs+Lwx+ADhh8AIbxmF88jJ6d7im0hBV0MoAGt4zNKGMCLl99wn3SvAtWS5jnp5PXQxg5U1AKFEowJ7AUcQXWVbE7giMzAV4Ovk5YnQhVS1gt6AcGToMky/vItwCxX+QJ4nbQtfeNYAJEFJVwcOBI7wuqXJ+DabGiYwVt4JXUjViK7rXoMMa6DsA5wRuiTTJ3MRbqfCH5jDQzbEnyzWACRNi9YjHI5wONFco0mfT4FPENpR5hFtgWxHmEeFdoR2YF7Xj+1UFvt5hnl0LvbzLO0Mo531mJ/4T0yqwnRWoJaVGEYdFeqAlVDqYImfr0Smm19jsV+LfhwBDAvy72IGYiHKnxH+wHD+zCj5LHRBpnvWACRVtNJ5a4T9gH2BhtAlmeDKQGfX1+I/X/Y/C51ot79fRskg1MBiX0rN578mXf+8+O9392vRVzaO/wgmkT4l2rp3F7Xc4fV8D+OMNQBpUdI88E1gX5SvYP/vjDFhvQHcg3APKzLVPumnjz1E0qhZR1LD3lTYt+uwodrQJRljBoXpCPeQ4W7G8nzip6XMMlkDkHbNWkeGXRG+CUwEVg1dkjGmCimTaZRDQpdh3LEGoJpM1RrW5grgmNClGGOqzkzyMjZ0EcadTOgCjEPRFpv1QpdhjKlKYyipz3s1TMysAagmqlngq6HLMMZUqQpfD12CcccagGrSxnjsDnFjjC/C9qFLMO7Y8bPVpMy2tqrDmEHvZeCRrkuyznIaWdnOaTwTlD0uqklRJwMHOY2p/BqhDGzZ9eXvQh1jTF+9A0wn2p43HXiGnLwBwDQdQh0fASs6zKfAyn26ktskljUA1UJVKPE6sI7TuDWs9fnZ9qoZCowhy5YoWwITgC2wpsCYOMxBF3vYC9Np4M1l7sUv6lRgB8d17ERepjqOaQKwKYBqUWQDxPHDH1qXuNhGpAK0dX1F97EvagqECWQ+bwysKTBmYN5CmE5lsQd+Xt7sR5wncN8AbAVYA1AFrAGoFsK2HqI+vvy8SzQFfwSipqDIWGBLMmxJhU0RcsAoDzUak2YdKG1AiQwvUGE6ynTGyVtOogtP4PqsPmErxxFNINYAVAtlaw8TOstvALoTNQWtXV9//PzXX9DhrEgDneSBPEIeyHV92a1vppp9CBSAIlBEu77eZpbXK3KH8k8WoLic7lVrAKqFrQGoFkV9Chy/MMvU0yQznMbsTjRisH5XQ7CoKVj085He8xvjhgKzWPSAz3Q97KPxsPeCnZtf1JeAjR1HXbefUxImQWwEoBo061BgU6cxhbcZx0ynMXvMJRXgla6vB5b4vVm6Ch3k0M+bgg1R1gfWB9bFzrIw8ZoPvNa1xe41ou/Z6IE/jDZGy/yw5XXrCVw3ANE0wJ1OY5rYWQNQDYbSRNnxjYDK44m46Su6V/yprq8lTdUaRrE2nayPsj7CqK4fFzUIo7DLkUzfvAu8iiz2kK90/XMNrzGGdxPxuuiLaB3AcU5jKltgDUDqWQNQDSpMcB5T+afzmK5Fc6ezu76e6PbPNGsdQxhFmVFkPm8U1kcZRdQgrA58KbaaTUjvEz3g30J4lUrXAz7Dq5R5jTpmV+Wd9j4WAsJ45xFN7KwBqAYVvux8NUeGpx1HDKNJ2okWXxV6/DNTtYbVWY0Mq5Nhdej6EtZAqEc5DMjGU7BxQmgmy0ks5B3KvMt7vO91sV2S1TOLEnNwu55mE4exTCC2CLAaFPRZhM0dRqxQZuWuh6cp6vHAb0OXYXrtE8qMp0leC11IYhT1NuAAx1FH2ImA6WYjAGk3S4exwPFwnFCwh/9iclxBkYkIEz1naiPDCShDUOqAOpQ6MgxHqUGpQch2/VgDXT/qF34tGq1Y9HtL/tqir3/HKiN0Eu1H70S6vrTr1/79886u3+9Y7OfRV6Xrz0U/70RoB+ZC149CO8JchjKf+UzG9W6VL1JOsof/Up7BdQNQoQl40mlMEytrANJuIeNx//9xmuN46SaivKTHMISXgDU8ZqqnwsHk5ViPOcIp6PkxHCJzJ3lu9JwjfYQXPRwItAnWAKSabaFKO3W+vxeiTwtmcePlbZSjY8h0DAX9Vgx54lXQ3RB+7DnLO9RwXOpW6cchw0seYtpCwJSzBiDtfDQAYiMA3WqUe4ErvOcRLqeg1fPm2qJrI/w+hkzfXeLuCvNvY3mD6DRCdyq2EDDtrAFIO3HeAHQyhBccx6we7ZwMlDxnWQHhVoq6kuc8/qlmyXATfqdOAK4jL3d5zpFe0ajIi25jMh5VW0ieYtYApJ/rBqAloaeZJcME+bRrW2CH50w54OrUv8GW+Cmwk+csr5HlB55zpJ84bgDgS8xgXccxTYysAUizZl0VnF8B7H6usNo0ynSUk2PIdBCtnBBDHj8Kuj3wM89ZygiHUS+feM5TDVw3AFAh5zymiY01AGlWQ5PzmMK/nMesRnkuA271nkf5NSX9svc8rrXpGgh/wPd7jPI/5KR/t1YONuKhua8wxnlMExtrANLMxwLAijUAvSKiZDkWaPOcaQjKrRR0Nc953FHNUOZ63I9OfdFfyHOB5xzVo4NmcLwZUBjrNJ6JlTUA6eZjB0Cz85jVKhp2nkR0Q5xPGyD8iWk6xHMeN6J5/z09Z5lDDUd03SRpeiM63OtlpzHFRgDSzBqANHM/AjCPHK86jlnd8vIixDJPvxN1XBRDnoEp6F7AOZ6zKHCobfnrl1an0dRGANLMGoA0E+drAJrtE1U/5OU64LoYMp3QdS9BMhU1h3Azvu8YUc4hL1O95qhWwkzHEcekfqfKIGYNQFrN1JUB1/PCNv/fX+2cSDw7KC6lqDvGkKdv2nQE0f3wIzxnepg853rOUb2UGY4jDudfrOk4pomJNQBpVWa085i2A6D/ovMBJhFdguNTFriNNk3O3Gu06O9GIO8503vAYYiUPeepXup8BACG2DRAWlkDkFZlNnIeUyk4jzmYNEorcEwMmValzD1dn7rDa+UMYN8YMh1BXt6MIU/1ynrOvi0RAAAXm0lEQVRoAGwhYGpZA5Be7huAioc3h8EmL7ciXBpDpkY6+QOq2Rhy9ayo+6CcHUOmC8jLAzHkqW5DmIXrrYAVD+9FJhbWAKSVOH/RKWo7AJzo5BSUp7znESZS4nzveXpS0jxwUwyZ/kk7/xNDnuoXHfP9uuOovs97MJ5YA5BerhuA12mShY5jDk5NspAKBwIfxJDtVEp6ZAx5ljRTV0a5E/B9YdGHVDiECeL77oXBxPVCQGsAUsoagPRy3QC4PSBksGuS1xAOjyWXcjUF3SaWXBAt+uvg9xDLOfBHMU5sZMot11N91gCklDUAaRTN+27oOKo1AK7l5H6E82LINJQMdzBDR8WQC4qcCewdQ6aL7YpfD8TxFICwttN4JjbWAKTRTNYBXB8Law2AD29yFvCw9zzKWnRwFy/ocK95irovwllec0Smk+W/Y8gz+FSY4zjiWkzVGscxTQysAUijTtb3EHWWh5hmR+mkzCHg/E13acLm1HI9qn5e163aSDyL/uaS5SDqZUEMuQYf4S3nEde2w4DSyBqANFLW8hDTRgB8aZI5KPsDcSyynESrhxXzM3VlKtwJ1DmPvbTDqRfbkuqLeGlGbR1AClkDkEbioQEY4nxrkFlco/wT4Tux5FJ+RkkPdhZvmg6hk1uBBmcxe3Ymebk7hjyDV9b5CACorQNII2sA0kgZ6TzmAt52HtMsKSc3Ar+IJZdyI0XdaeBxVKjjSpRvOKhqObm4gxw/955nsPPzWrcRgBSyBiCN3I8AfGhnAMQkx08R7o0h0xDgTlp1swFFiaYTjnJS0bIoLQjfstsoYxC91t93HHVVx/FMDKwBSCfXDYD/BWomIlImw2EIzTFkW4kK91PQDfv1twv6rZiO+f2ICvuSF98XKZlF3K8DSMa9FKZPrAFIJ9cNgA3/x6lePkHYB/efwrozEuFBSrp6n/5Wq+6CcI2nmhanwCE0ievT6cyyqOPXvFgDkEbWAKST2wZAbQQgdg3yMsoBQGcc2ahwb6/PCCjqJlS4HYhjb/dP7JKfID5xHM8agBSyBiCd3C4CFBsBCKJRHkH5z1hyCV+hlj8xTZd9gFSbrgfch/8z/gH+RC6mRZHmi1xPt1gDkELWAKTNbF0BWNFpTD/7gk1vNMpVMV0fDLAndVyBqnT7u206gjJ/BtaNoZYXWcDRiLi9mtb0ljUAxhqA1Fng5ZNZHHPRpidv8iOUv8WU7WhKnLPUr07TIVS4Ddgkhho+AL7JpjIvhlymO2pTAMYagPTpxMdZ767fDExf7CiddHAg0BZTxjMo6Qmf/1Oce/2hgnAgebGjp8NyOwJgiwBTyRqAtFEvR7Ha9qvQNpEPiW7Y+ziWfMplFHR/IL69/gDCKeTk77HkMsvi9jWvrOw0nomFNQDpYw1AtcpLCeVAII7DcAThD5T0vJj2+gPcRAMXxZTLLJvr1/wwx/FMDKwBSJushykAsQYgMRrlL8APY8pWi/KTmHI9y3C+a4v+EsP1az7rOJ6JgTUAaeNjCsAagGTJcSnK1aHLcOgdyuzHKPksdCGmS4ay44jWAKSQNQBpYw1A9RNRKpwI/CV0KQ58CkykSV4LXYhZjOJ6JMYagBSyBiBt1MMUQK01AIkTXdgyCZgeupQBqJDhQPIyLXQhZinWABhrAFJHWMF5zPWwmwCTKC9zqWFPYGboUvpFOZ4G+XPoMkw33I8ACKr2PEkZ+x9mwP2nAePKWHmHLLsB74QupU+E82iUq0KXYXrk/jU/3UYB0sYaAAPWACRbvcykwh5Ae+hSeukmGjgjdBFmGbIeXvOrWQOQNtYAGGxrVgqMk2fJsB/QEbqU5ZhKmWPseyrh3E8BwCfWAKSNNQDGpEWD/A3hyNBl9Ehoppb9uxYwmiQTur8QaiA6bC1R2lgDYOyTWprkZDLwg9BldONNsuzBaPkodCGmFyrOdxN1MEGSPjplvsAaAGMNQNrk5WLggtBlLGYuwp6MldmhCzG95roB+NRxPBMDawBMxrbvpFCOn6DcGLoMoJMKB5CTF0IXYvrA/YFi1gCkkL3xG3jRw9kCxi8RZR7HAvcHrUP5DuPkr0FrMH2XsREAYw1AGs13HjHj5YZB49sE6WAB/wE8HSS/cBaNcn2Q3GZg3J8oavc8pJA1AGmjfOI8Zq2H44VNPDaVeZQ5GmFBzJnnUMPFMec0rrhvAGwEIIWsAUgf9w1A2RqA1GrVjchyN0ptzJlHspCpvKRrxZzXuCCs5DiiNQApZA1A+vi4uMemANKooOOp8ASwUZD8wuYM4QlaNUx+MxCuGzf3H0yMd9YApE2Nhxda1kYAUqegX0V4FBgZuJIxVHiCkm4auA7TN2s7jSbMcRrPxMIagPRx3wAoqzuPafwp6G4IfwVWCV1Kl5Eoj1LQ7UMXYnrNbQOgvO00nomFNQDp42Ooze2bgfGnqAci3AOsGLqULxiB8CAl3S90IWY5onM/3E4B2AhAKlkDkD4+RgCsAUiDgn4XmAwMCV1KD2pRbqOkx4YuxCzDDFYDapzGrFgDkEbWAKRNvSzA/UJAawCSTFUo6Y8RrgQPl7i4lUG5mqKejmrSax2cOr2sG7EGIIWsAUin151G0+ALyUxPVIUSv0A5P3QpffS/tHKxHTOdSBs4j1hjawDSyF6caSSOG4CMjQAk0jRdkRKTgVNCl9IvyvcpcjPNOjR0KWYJOecRF1oDkEbWAKSROh8B2MCGaxNmho6ijseAA0OXMiDCwWS5h2a1syaSQsg7jvgxTdLuOKaJgTUA6eS2AYA6SjYKkBgF3YYyzwBbhC7FkV3J8hDNalNNyeC6AWh1HM/ExBqANHI9AhBx/aZg+qOg30Z4GHV+UltoXybLM7RotTQ1aeZ6CsAagJSyBiCNMh4aAPfDgqYvVLMU9FcI1wHVOme+Hhkep6iTQhcyaBV0NWANx1FLjuOZmFgDkEY+RgDUw8Ig0zuzdBVK3IvwowDZNeZ8KwC3UtIzbd1JEBs7jyg2ApBW1gCk0XDagIrTmEKj03imdwrawAKeBHYPkR04CD8XTC2bcjYlJjNNk3aiYXUTvuIhpo0ApJQ1AGk0Sj4DZjiNqWxun8hiVtBdEZ7Cx7as5ZuG8HXycitZtgfeCVDDgdTxGG26XoDcg5OytfOYHY7fi0xsrAFIr5ccx1udGYGulR1sVIWi/hfC/YS50OchYCdy8h4A9fIcZb4GvBygli0o8wwl3TZA7sFFVRC2cRz1DdsCmF7WAKSVOG8AoOzh04FZUrPWUeR64CLCvP7upJaJ5GXJYf8mmdHVBLwQoKaRKA9T0h/ZKJRHLYzC/fXRIb5fjCPWAKRVhX85jynWAHjVoluQ5VmEI4PkF67nLf6D0TK/299vkjkMYXvgkXgLAyCL8iuKTGGmrhwgf/Wrcf7pH+CfHmKamFgDkF7uRwDUyxuEUc1Q0JPJ8CRQH6YGfk0Dx7CjdC7zz42Rj6lld5Q7YqpsScJ+dDKNkm4aJH81U3ZxHlOsAUgzG25LK9UsJdqBYQ6jlqlldUbLRw5jDm4v6VoM4QZgt4BVnEGO8xDp/ZY/1SxFLkf4jse6lmU+yvE0yvWB8leX6FKpN3B782cFWGWp6SSTGjYCkFYiZWC646hZFrCr45iDV1F3ZwgvEu7hrwj/SV5+3qeHP0TfX3mOA/7XT2nLNQzhOop6jW0VdKDA5ri/9vtf9vBPN2sA0ky8zNXu5SHm4NKmtRT0V8D9wJqBquhEOYyc/LbfEUSUvPwPyknEf2DQIsdQx7N2hPAAZZjoIaoN/6ecNQBpVuFRD1H3RDXrIe7gUNQcnfwz0Kl+i8wF9qZR/ugkWqNcinAo0OEkXt/lyPAkRT3Nvjf7ST00AGoNQNpZA5Bmwj+AsuOoq1H0cFpYtYv29h8NPIuwecBKXqHCV8nLA06j5mQyyl7APKdxe28IcAEl/sYMHRWohnQq6mgvJwDaCEDqWQOQZtH827PO42Y42HnMalbUdWjlNuB3QMj56n9Qw1cYJ+63iAI0yl8QdgLe8xK/d3agkxcp6UEBa0gX5dseos4kT5uHuCZG1gCknXiYBlAOo01rncetNqpZSvqfQBFl/8DV3EQtOzNW/B7pm5OnybI1QrPXPMu2Cspkivr7rtvtTE9UM4iHBkC5u88LS03iWAOQdhUvCwFXpcw+HuJWj5JuSpEnUC4DVgpai3I6OY7s8YAf1+plZteZEXfGkq9nhyO0UNKD7ATBHrSxE7C+h8h3e4hpYmYNQNrN4+/Apx4iH+UhZvq9oMMp6i9QpnuaV+2Lz1Am0Sh92+PvQl7mkuMAlHNizbu0NVEmU+Iuu1SoGxUv5zh8yDye8BDXxMwagLSbIJ8Cf/YQeTeadayHuOlV1N2p5V/AqUDo1ehvomxHo0wJVoFIhUY5C2US4RYHLrI3ZVoo6vGo2vsa0PX6neQh8n1MkFA7QoxD9kKpDrd5iJkhy489xE2fZh1JUScT7evfMHA1AA/TwRY0iuuDoPonakK+CrwSuJKVgN9S4hGatSlwLeFFr18f7/E2/F8lbN6sGjRrHVneAVZwHLmTMmNoktccx02HqVrDSI5B+D/CXNvbnV/yFj9d7pn+IZR0dZRbgR1Cl0K0PfY3LORnbCIfhi4mds26PllmEG2fdKmDIazBGPnYcVwTgI0AVIMmae+6W961GjKc5iFusqkKBd2ftXkJ4QqS8fCfizKJvJyWyIc/QE7eo51dES4LXQrRFM1JDKWVgn530B0gFH36d/3wB7jdHv7Vw0YAqkVJD0Zxc/LbkjooszlNEnLbV3xKujPK+cCXQ5fyOaUFYX/yUgpdSq+V9FiU3+LnIdR3ynNkOImcPB66FO9adAsyPIOfD3g7k5eHPMQ1AdgIQLWYzz2Aj1v8hpDliqpfWFXSL1PUv6H8jSQ9/OEWKnwlVQ9/gJxcA+wI+D2XoLeEzVEeo6h/oqT50OV4o5olw+X4eG8XZpBjqvO4JpjqflMfTDaVeQi/8xR9W0pVui2wTcdR0NtRngZ2Dl3OYjqBH5LjEJqkPXQx/ZKXJ6hhApCkT93/gdJMSa+joBuGLsa5Et8BtvISW7nKDv+pLjYFUE1adSMqzMDP/9ePybIl9TLTQ+z4tegGZPkZypEkrxFuRTk0Mav8B2qq1rAOp6OcSbL+W3cAVwM/Jy9vhi5mwEqaR3kGqPMQfSFZ1qNe3vUQ2wRiDUC1KerdwN6eor/EArZhUwm957t/VIUSXwVOAvYHagJX1J1rWMAPUvvfeFlKui3Kzfg5mW4g5gNXolxEo7wSuph+KepKwNOAn+kNZTKNcoiX2CaYJHXjxoUKl3qMPp5arkrdsauzdBgF/RYlphENRx9I8h7+H3at8v9OVT78AXLyOAvZDLg1dClfMAz4L4QZFPSPFHTL0AX1SfR6vBZfD38A5WJvsU0w6XojN8sXfcptweebAVxOjhMRqXjMMXAlXRfleOA4YPXQ5SzDVLIcSb28HrqQWETfo0cDlxD29sRleZgMF1LP/Yn+PlfNUOK3RN/jnnLwZxplL2/xTTDWAFQjf1sC/024ngaORaTsNU9fqQqtfA3l+8ABhD+yd1k6gTPIcWHi/jvGIZqz/iOwWehSlmEWcC1Zrk9cg6aapZXfoXzLa54KWzJO3F87boKzBqAaRZ8Kngb8DmUqfyPDt8nJG17zLLcOzdLG16hwALAfMCpoPb3zIhWOGvRvrG1aSyfnI/wwdCnLUQEeQLiGudwb/Cz86NTFa/G33meRKeTFx30CJgGsAahWRd0J+HsMmT5EOIEGbol1i1CzDiXDjmTYH+WbwJqx5R6YhcC5lPkFTbIwdDGJUdI9UG4A1ghdSi+8j3APyh0M56+Mks9izR79t7oWGOk5k1Jm/KA5BGwQsgagmhX1fmD3mLK9iHA+DdzqbTi7qOsgbIcykeiTTxKO6O095SlqOJp6aQldSiI160iyXAnsE7qUPphHNDJwFxmmep0miHZR/ATY01uOJd1MXg6PKZcJwBqAalbUTYDniff/8xzgXpS7WchD/V7RPktXYSHjgfHAVijbARs5rDNOnyGcQQMXD8q5/r5QFYrsh3ApsE7ocvphFsKjKI8i/IM3mdHvuxui9Sw5KkwkwySUrR3XuiztVNiYcfJqjDlNzKwBqHYlvaRrQVwISrSIqhkoAO8Dc7u+5gPDEFZAGU40nDkKZT2EjYD1AtXs2sOU+Q5NMiN0IakyU1dmIT9HOIF0v091ADMQCigF4A2EDyjzAdFUQgcZhgHDqLACwnpAA0oDwmbA6CBVK9+jUa4MktvEJs0vLNMb03RF6ngWyIUuZZB5B/gxOW5I9DaypGvRrclwFdFIkInHQ+TYxY79rX52EFC1myCfIhxBdD+68a8MXEQtOfJynT38B2icPEk7WwI/BuJdbDc4zQOOtYf/4GANwGCQk2cQzg1dxiDwEGU2JS8/ZLT4uJlxcJogHeTlAjJsDPwldDlVTfkxeZkVugwTD5sCGCym6RDqeBxfN4UNbq8BJ5Njin1y8ixaJHgIwkWkY8tgmtxHjr1t1GrwsBGAwWKCdCDsDyTrNLN0+xQ4l3Yayctt9vCPgYjSKH+gTB7hMqJFdmbgXgIOtof/4GIjAINNQccjPA6MCF1KinUgXEEn59Ekc0IXM6hFV2CfDRyGvZ/11xzKfIUmeS10ISZe9oIZjEq6M8oDJO9GvKSrANdT4RzbH50wRd0E5TyEiaFLSZnPELYnJ8+ELsTEzxqAwaqkR3YdvWp6508IZ5GTYuhCzDKUdDuU84GvhS4lBSooB9IoU0IXYsKwBmAwK+pRwNUk+8a80O4my8+ol+dCF2J6KVooOBHhfGDj0OUk1AKUQ2mU20MXYsKxBmCwK+huCLcBdaFLSZCFwO/J8CsapBC6GNNPqllKHAKcC2wYuJok+QRlHxrlkdCFmLCsATDQoluQ4c/4v10s6T5GuRzlEsbJW6GLMY60aS1lDgNOBfKhywlsDsLu5OSF0IWY8KwBMJGCbohwB7BZ6FICeB3h1yhXk5e5oYsxnqhmuqYGTgO2DV1O7JQWhL3soB+ziDUA5t+m6RCGczrC6VT/DoEy0a2Fv2MO9/f7xjaTTgXdBuGHwH5U//e6AhdSy5mMlvmhizHJYQ2AWVo0JXAD1bmAqg34HRVutGF+w0u6FkM5CuW7hLp5z6+ZwLfIyxOhCzHJYw2A6V6b1tLJTxB+BKwUupwBake5nSy/o57H7MQ+s5RoeuAbCMcCewO1oUsaoArK5Szkv9lU5oUuxiSTNQBm2Zp1VWr4PsoPgFVCl9MH7wN3keF2hvB3G/o0vdamI+hkP4RDgF1I1zbZMnAjZc6jSWaELsYkmzUApnfadAQVTkA5GVg9dDk9eBPlDoTbeYtHbV7fDNgMXZNO9kfZC2FnYFjoknrQiXIdWf6PBnk5dDEmHawBMH3TprVU2BllP2BfQt7IJryN8hjwOMrj5HnOLjMx3kzTFRnBjlSYCOxOMtYMTEeZQoWb7Sx/01fWAJj+U83SyldR9gd2JtpjPcRTtoUIbShPojxODY8xlpdtPt8EU9J1ibYTbouyHTCeeG5Y/QfCFCrcTqO8EkM+U6WsATDuNOtQMuQQNoHPvzYkWkQ4gp4XEyrQDswF5qLMBkoIrUArUCLHa4iUff8rGNNvs3UF5tJIlo1RxhPtotkQWI/+nbQ5D+El4MXPv4byEqPlI2c1m0HNGgATH9UMM6ijwkqUWZFodf5cxvGpDd2bqtamI1DWpcJIMqxIhRVRVkRYEZiP8jEZPkb5mAofM5SPGcN79rowxhhjjDHGGGOMMcYYY4wxxhhjjDHGGGOMMcYYY4wxxhhjjDHGGGOMMcYYY4wxxhhjjDHGGGOMMcYYY4wxxhhjjDHGGGOMMcYYY4wxxhhjjDHGGGOMMcYYY4wxxhhjjDHGGGOMMcYYY4wxxhhjjDHGGGOMMcYYY4wxxhhjjDHGGGOMMcYYY4wxxhhjjDHGGGOMMcYYY4wxxhhjjDHGGGOMMcYYY4wxxhhjjDHGGGOMMcYYY4wxxhhjjDHGGGOMMcYYY4wxxhhjjDHGGGOMMcYYYwaT/w+Nxcs8jZqDLgAAAABJRU5ErkJggg==;imageBorder=#000000;" parent="1" vertex="1">
                    <mxGeometry x="-301" y="-166" width="62" height="62" as="geometry"/>
                </mxCell>
                <mxCell id="40" value="" style="endArrow=none;startArrow=classic;html=1;endFill=0;" parent="1" source="14" target="2" edge="1">
                    <mxGeometry width="50" height="50" relative="1" as="geometry">
                        <mxPoint x="210" y="-210" as="sourcePoint"/>
                        <mxPoint x="260" y="-260" as="targetPoint"/>
                    </mxGeometry>
                </mxCell>
                <mxCell id="42" value="" style="endArrow=classic;startArrow=classic;html=1;" parent="1" source="5" target="4" edge="1">
                    <mxGeometry width="50" height="50" relative="1" as="geometry">
                        <mxPoint x="120" y="20" as="sourcePoint"/>
                        <mxPoint x="170" y="-30" as="targetPoint"/>
                    </mxGeometry>
                </mxCell>
                <mxCell id="43" value="Static website" style="text;html=1;strokeColor=none;fillColor=none;align=center;verticalAlign=middle;whiteSpace=wrap;rounded=0;dashed=1;" parent="1" vertex="1">
                    <mxGeometry x="80" y="-440" width="80" height="20" as="geometry"/>
                </mxCell>
                <mxCell id="44" value="React application" style="text;html=1;strokeColor=none;fillColor=none;align=center;verticalAlign=middle;whiteSpace=wrap;rounded=0;dashed=1;" parent="1" vertex="1">
                    <mxGeometry x="80" y="201" width="130" height="20" as="geometry"/>
                </mxCell>
                <mxCell id="45" value="Rekognition" style="outlineConnect=0;dashed=0;verticalLabelPosition=bottom;verticalAlign=top;align=center;html=1;shape=mxgraph.aws3.rekognition;fillColor=#2E73B8;gradientColor=none;" parent="1" vertex="1">
                    <mxGeometry x="1054" y="-175" width="76.5" height="93" as="geometry"/>
                </mxCell>
                <mxCell id="46" value="" style="endArrow=classic;startArrow=classic;html=1;" parent="1" source="20" target="45" edge="1">
                    <mxGeometry width="50" height="50" relative="1" as="geometry">
                        <mxPoint x="964" y="-7.5" as="sourcePoint"/>
                        <mxPoint x="1014" y="-57.5" as="targetPoint"/>
                    </mxGeometry>
                </mxCell>
                <mxCell id="48" value="" style="verticalLabelPosition=bottom;html=1;verticalAlign=top;align=center;strokeColor=none;fillColor=#00BEF2;shape=mxgraph.azure.computer;pointerEvents=1;" parent="1" vertex="1">
                    <mxGeometry x="-350" y="-191" width="160" height="140" as="geometry"/>
                </mxCell>
                <mxCell id="49" value="" style="verticalLabelPosition=bottom;html=1;verticalAlign=top;align=center;strokeColor=none;fillColor=#00BEF2;shape=mxgraph.azure.computer;pointerEvents=1;" parent="1" vertex="1">
                    <mxGeometry x="-350" y="-401" width="160" height="140" as="geometry"/>
                </mxCell>
                <mxCell id="50" value="" style="endArrow=classic;startArrow=classic;html=1;" parent="1" source="49" target="7" edge="1">
                    <mxGeometry width="50" height="50" relative="1" as="geometry">
                        <mxPoint x="-120" y="-230" as="sourcePoint"/>
                        <mxPoint x="-70" y="-280" as="targetPoint"/>
                    </mxGeometry>
                </mxCell>
                <mxCell id="51" value="" style="endArrow=classic;startArrow=classic;html=1;" parent="1" source="48" target="14" edge="1">
                    <mxGeometry width="50" height="50" relative="1" as="geometry">
                        <mxPoint x="-120" y="10" as="sourcePoint"/>
                        <mxPoint x="-70" y="-40" as="targetPoint"/>
                    </mxGeometry>
                </mxCell>
                <mxCell id="52" value="" style="dashed=0;outlineConnect=0;html=1;align=center;labelPosition=center;verticalLabelPosition=bottom;verticalAlign=top;shape=mxgraph.webicons.html5;gradientColor=#DFDEDE" parent="1" vertex="1">
                    <mxGeometry x="-310" y="-384" width="76.2" height="76.4" as="geometry"/>
                </mxCell>
                <mxCell id="53" value="&lt;font style=&quot;font-size: 18px&quot;&gt;generate static website&lt;/font&gt;" style="text;html=1;strokeColor=none;align=center;verticalAlign=middle;whiteSpace=wrap;rounded=0;fillColor=#ffffff;" parent="1" vertex="1">
                    <mxGeometry x="600" y="-137" width="120" height="33" as="geometry"/>
                </mxCell>
                <mxCell id="55" value="&lt;font style=&quot;font-size: 18px&quot;&gt;generate several sizes&lt;/font&gt;" style="text;html=1;strokeColor=none;align=center;verticalAlign=middle;whiteSpace=wrap;rounded=0;fillColor=#ffffff;" parent="1" vertex="1">
                    <mxGeometry x="621" y="-380" width="183" height="40" as="geometry"/>
                </mxCell>
                <mxCell id="56" value="&lt;font style=&quot;font-size: 18px&quot;&gt;label detection&lt;/font&gt;" style="text;html=1;strokeColor=none;align=center;verticalAlign=middle;whiteSpace=wrap;rounded=0;fillColor=#ffffff;" parent="1" vertex="1">
                    <mxGeometry x="891" y="-119" width="151" height="40" as="geometry"/>
                </mxCell>
                <mxCell id="57" value="&lt;font style=&quot;font-size: 18px&quot;&gt;metadata&lt;/font&gt;" style="text;html=1;strokeColor=none;align=center;verticalAlign=middle;whiteSpace=wrap;rounded=0;fillColor=#ffffff;" parent="1" vertex="1">
                    <mxGeometry x="604.5" y="-29" width="111" height="40" as="geometry"/>
                </mxCell>
                <mxCell id="58" value="&lt;font style=&quot;font-size: 18px&quot;&gt;upload picture&lt;/font&gt;" style="text;html=1;strokeColor=none;align=center;verticalAlign=middle;whiteSpace=wrap;rounded=0;fillColor=#ffffff;" parent="1" vertex="1">
                    <mxGeometry x="210" y="120" width="180" height="40" as="geometry"/>
                </mxCell>
                <mxCell id="59" value="AWS Amplify" style="outlineConnect=0;fontColor=#232F3E;gradientColor=#F54749;gradientDirection=north;fillColor=#C7131F;strokeColor=#ffffff;dashed=0;verticalLabelPosition=bottom;verticalAlign=top;align=center;html=1;fontSize=12;fontStyle=0;aspect=fixed;shape=mxgraph.aws4.resourceIcon;resIcon=mxgraph.aws4.amplify;" parent="1" vertex="1">
                    <mxGeometry x="-30" y="150" width="78" height="78" as="geometry"/>
                </mxCell>
                <mxCell id="60" value="1" style="ellipse;whiteSpace=wrap;html=1;aspect=fixed;strokeWidth=2;fontFamily=Tahoma;spacingBottom=4;spacingRight=2;strokeColor=#d3d3d3;" vertex="1" parent="1">
                    <mxGeometry x="92" y="-379" width="20" height="20" as="geometry"/>
                </mxCell>
                <mxCell id="61" value="2" style="ellipse;whiteSpace=wrap;html=1;aspect=fixed;strokeWidth=2;fontFamily=Tahoma;spacingBottom=4;spacingRight=2;strokeColor=#d3d3d3;" vertex="1" parent="1">
                    <mxGeometry x="92" y="-170" width="20" height="20" as="geometry"/>
                </mxCell>
                <mxCell id="62" value="3" style="ellipse;whiteSpace=wrap;html=1;aspect=fixed;strokeWidth=2;fontFamily=Tahoma;spacingBottom=4;spacingRight=2;strokeColor=#d3d3d3;" vertex="1" parent="1">
                    <mxGeometry x="572" y="-378" width="20" height="20" as="geometry"/>
                </mxCell>
                <mxCell id="63" value="4" style="ellipse;whiteSpace=wrap;html=1;aspect=fixed;strokeWidth=2;fontFamily=Tahoma;spacingBottom=4;spacingRight=2;strokeColor=#d3d3d3;" vertex="1" parent="1">
                    <mxGeometry x="572" y="64" width="20" height="20" as="geometry"/>
                </mxCell>
                <mxCell id="64" value="5" style="ellipse;whiteSpace=wrap;html=1;aspect=fixed;strokeWidth=2;fontFamily=Tahoma;spacingBottom=4;spacingRight=2;strokeColor=#d3d3d3;" vertex="1" parent="1">
                    <mxGeometry x="564" y="-150" width="20" height="20" as="geometry"/>
                </mxCell>
                <mxCell id="65" value="6" style="ellipse;whiteSpace=wrap;html=1;aspect=fixed;strokeWidth=2;fontFamily=Tahoma;spacingBottom=4;spacingRight=2;strokeColor=#d3d3d3;" vertex="1" parent="1">
                    <mxGeometry x="860" y="-157" width="20" height="20" as="geometry"/>
                </mxCell>
                <mxCell id="66" value="7" style="ellipse;whiteSpace=wrap;html=1;aspect=fixed;strokeWidth=2;fontFamily=Tahoma;spacingBottom=4;spacingRight=2;strokeColor=#d3d3d3;" vertex="1" parent="1">
                    <mxGeometry x="319" y="-9" width="20" height="20" as="geometry"/>
                </mxCell>
            </root>
        </mxGraphModel>
    </diagram>
</mxfile>